<svg width="48" height="48" viewBox="0 0 48 48" fill="none" xmlns="http://www.w3.org/2000/svg">
<mask id="mask0_3669_42674" style="mask-type:alpha" maskUnits="userSpaceOnUse" x="0" y="0" width="48" height="48">
<rect width="48" height="48" fill="#D9D9D9"/>
</mask>
<g mask="url(#mask0_3669_42674)">
<path d="M18.3002 6.75234L35.1502 23.5523C35.3502 23.7523 35.4919 23.969 35.5752 24.2023C35.6585 24.4357 35.7002 24.6857 35.7002 24.9523C35.7002 25.219 35.6585 25.469 35.5752 25.7023C35.4919 25.9357 35.3502 26.1523 35.1502 26.3523L18.3002 43.2023C17.8335 43.669 17.2502 43.9023 16.5502 43.9023C15.8502 43.9023 15.2502 43.6523 14.7502 43.1523C14.2502 42.6523 14.0002 42.069 14.0002 41.4023C14.0002 40.7357 14.2502 40.1523 14.7502 39.6523L29.4502 24.9523L14.7502 10.2523C14.2835 9.78567 14.0502 9.21067 14.0502 8.52734C14.0502 7.84401 14.3002 7.25234 14.8002 6.75234C15.3002 6.25234 15.8835 6.00234 16.5502 6.00234C17.2169 6.00234 17.8002 6.25234 18.3002 6.75234Z" fill="white"/>
</g>
</svg>
