<svg width="24" height="25" viewBox="0 0 24 25" fill="none" xmlns="http://www.w3.org/2000/svg">
<mask id="mask0_7326_1789" style="mask-type:alpha" maskUnits="userSpaceOnUse" x="0" y="0" width="24" height="25">
<rect y="0.944824" width="24" height="24" fill="#D9D9D9"/>
</mask>
<g mask="url(#mask0_7326_1789)">
<path d="M21.5252 10.1457L13.1252 18.5707C13.0252 18.6707 12.9169 18.7415 12.8002 18.7832C12.6835 18.8249 12.5585 18.8457 12.4252 18.8457C12.2919 18.8457 12.1669 18.8249 12.0502 18.7832C11.9335 18.7415 11.8252 18.6707 11.7252 18.5707L3.3002 10.1457C3.06686 9.91237 2.9502 9.6207 2.9502 9.2707C2.9502 8.9207 3.0752 8.6207 3.3252 8.3707C3.5752 8.1207 3.86686 7.9957 4.2002 7.9957C4.53353 7.9957 4.8252 8.1207 5.0752 8.3707L12.4252 15.7207L19.7752 8.3707C20.0085 8.13737 20.296 8.0207 20.6377 8.0207C20.9794 8.0207 21.2752 8.1457 21.5252 8.3957C21.7752 8.6457 21.9002 8.93737 21.9002 9.2707C21.9002 9.60404 21.7752 9.8957 21.5252 10.1457Z" fill="white"/>
</g>
</svg>
