<svg width="34" height="24" viewBox="0 0 34 24" fill="none" xmlns="http://www.w3.org/2000/svg">
<path d="M11.9667 18.2232L29.3022 0.906503C29.7455 0.466403 30.2706 0.246353 30.8778 0.246353C31.4849 0.246353 32.0085 0.466985 32.4486 0.908252C32.8887 1.34952 33.1087 1.8758 33.1087 2.4871C33.1087 3.0984 32.8887 3.62662 32.4486 4.07175L13.5384 22.9819C13.0938 23.422 12.5687 23.6421 11.9633 23.6421C11.3578 23.6421 10.835 23.422 10.3949 22.9819L1.51813 14.1051C1.07803 13.6585 0.861594 13.1293 0.868828 12.5176C0.876094 11.9059 1.10036 11.38 1.54163 10.9399C1.98289 10.4998 2.50918 10.2797 3.12048 10.2797C3.73178 10.2797 4.25998 10.4998 4.70508 10.9399L11.9667 18.2232Z" fill="#181818"/>
</svg>
