<svg width="21" height="20" viewBox="0 0 21 20" fill="none" xmlns="http://www.w3.org/2000/svg">
<path d="M5.5 11.5C5.91667 11.5 6.27083 11.3542 6.5625 11.0625C6.85417 10.7708 7 10.4167 7 10C7 9.58333 6.85417 9.22917 6.5625 8.9375C6.27083 8.64583 5.91667 8.5 5.5 8.5C5.08333 8.5 4.72917 8.64583 4.4375 8.9375C4.14583 9.22917 4 9.58333 4 10C4 10.4167 4.14583 10.7708 4.4375 11.0625C4.72917 11.3542 5.08333 11.5 5.5 11.5ZM10.5 11.5C10.9167 11.5 11.2708 11.3542 11.5625 11.0625C11.8542 10.7708 12 10.4167 12 10C12 9.58333 11.8542 9.22917 11.5625 8.9375C11.2708 8.64583 10.9167 8.5 10.5 8.5C10.0833 8.5 9.72917 8.64583 9.4375 8.9375C9.14583 9.22917 9 9.58333 9 10C9 10.4167 9.14583 10.7708 9.4375 11.0625C9.72917 11.3542 10.0833 11.5 10.5 11.5ZM15.5 11.5C15.9167 11.5 16.2708 11.3542 16.5625 11.0625C16.8542 10.7708 17 10.4167 17 10C17 9.58333 16.8542 9.22917 16.5625 8.9375C16.2708 8.64583 15.9167 8.5 15.5 8.5C15.0833 8.5 14.7292 8.64583 14.4375 8.9375C14.1458 9.22917 14 9.58333 14 10C14 10.4167 14.1458 10.7708 14.4375 11.0625C14.7292 11.3542 15.0833 11.5 15.5 11.5ZM10.5 20C9.11667 20 7.81667 19.7375 6.6 19.2125C5.38333 18.6875 4.325 17.975 3.425 17.075C2.525 16.175 1.8125 15.1167 1.2875 13.9C0.7625 12.6833 0.5 11.3833 0.5 10C0.5 8.61667 0.7625 7.31667 1.2875 6.1C1.8125 4.88333 2.525 3.825 3.425 2.925C4.325 2.025 5.38333 1.3125 6.6 0.7875C7.81667 0.2625 9.11667 0 10.5 0C11.8833 0 13.1833 0.2625 14.4 0.7875C15.6167 1.3125 16.675 2.025 17.575 2.925C18.475 3.825 19.1875 4.88333 19.7125 6.1C20.2375 7.31667 20.5 8.61667 20.5 10C20.5 11.3833 20.2375 12.6833 19.7125 13.9C19.1875 15.1167 18.475 16.175 17.575 17.075C16.675 17.975 15.6167 18.6875 14.4 19.2125C13.1833 19.7375 11.8833 20 10.5 20ZM10.5 18C12.7333 18 14.625 17.225 16.175 15.675C17.725 14.125 18.5 12.2333 18.5 10C18.5 7.76667 17.725 5.875 16.175 4.325C14.625 2.775 12.7333 2 10.5 2C8.26667 2 6.375 2.775 4.825 4.325C3.275 5.875 2.5 7.76667 2.5 10C2.5 12.2333 3.275 14.125 4.825 15.675C6.375 17.225 8.26667 18 10.5 18Z" fill="white"/>
</svg>
