<svg width="28" height="28" viewBox="0 0 28 28" fill="none" xmlns="http://www.w3.org/2000/svg">
<mask id="mask0_5536_15387" style="mask-type:alpha" maskUnits="userSpaceOnUse" x="0" y="0" width="28" height="28">
<rect width="28" height="28" fill="#D9D9D9"/>
</mask>
<g mask="url(#mask0_5536_15387)">
<path d="M5.5126 23.3327C4.34593 23.3327 3.3494 22.9146 2.52301 22.0785C1.69663 21.2424 1.26399 20.2313 1.2251 19.0452C1.2251 18.8702 1.23482 18.6952 1.25426 18.5202C1.27371 18.3452 1.30288 18.1702 1.34176 17.9952L3.79176 8.19518C4.06399 7.14518 4.61815 6.29449 5.45426 5.6431C6.29038 4.99171 7.24315 4.66602 8.3126 4.66602H19.6876C20.757 4.66602 21.7098 4.99171 22.5459 5.6431C23.382 6.29449 23.9362 7.14518 24.2084 8.19518L26.6584 17.9952C26.6973 18.1702 26.7313 18.35 26.7605 18.5348C26.7897 18.7195 26.8043 18.8994 26.8043 19.0744C26.8043 20.2605 26.3813 21.2667 25.5355 22.0931C24.6897 22.9195 23.6737 23.3327 22.4876 23.3327C21.6709 23.3327 20.9126 23.1188 20.2126 22.691C19.5126 22.2632 18.9876 21.6799 18.6376 20.941L17.8209 19.2493C17.7237 19.0549 17.5779 18.9091 17.3834 18.8118C17.189 18.7146 16.9848 18.666 16.7709 18.666H11.2293C11.0154 18.666 10.8112 18.7146 10.6168 18.8118C10.4223 18.9091 10.2765 19.0549 10.1793 19.2493L9.3626 20.941C9.0126 21.6799 8.4876 22.2632 7.7876 22.691C7.0876 23.1188 6.32926 23.3327 5.5126 23.3327ZM5.6001 20.9993C5.96954 20.9993 6.30496 20.9021 6.60635 20.7077C6.90774 20.5132 7.13621 20.2507 7.29176 19.9202L8.10843 18.2577C8.4001 17.6549 8.82788 17.1834 9.39176 16.8431C9.95565 16.5028 10.5682 16.3327 11.2293 16.3327H16.7709C17.432 16.3327 18.0445 16.5077 18.6084 16.8577C19.1723 17.2077 19.6098 17.6744 19.9209 18.2577L20.7376 19.9202C20.8932 20.2507 21.1216 20.5132 21.423 20.7077C21.7244 20.9021 22.0598 20.9993 22.4293 20.9993C22.9737 20.9993 23.4404 20.8195 23.8293 20.4598C24.2182 20.1 24.4223 19.648 24.4418 19.1035C24.4418 19.123 24.4223 18.9382 24.3834 18.5494L21.9334 8.77852C21.7973 8.25352 21.5251 7.82574 21.1168 7.49518C20.7084 7.16463 20.232 6.99935 19.6876 6.99935H8.3126C7.76815 6.99935 7.2869 7.16463 6.86885 7.49518C6.45079 7.82574 6.18343 8.25352 6.06676 8.77852L3.61676 18.5494C3.57788 18.666 3.55843 18.841 3.55843 19.0744C3.55843 19.6188 3.75774 20.0757 4.15635 20.4452C4.55496 20.8146 5.03621 20.9993 5.6001 20.9993ZM15.7501 12.8327C16.0807 12.8327 16.3577 12.7209 16.5813 12.4973C16.805 12.2737 16.9168 11.9966 16.9168 11.666C16.9168 11.3355 16.805 11.0584 16.5813 10.8348C16.3577 10.6112 16.0807 10.4993 15.7501 10.4993C15.4195 10.4993 15.1425 10.6112 14.9188 10.8348C14.6952 11.0584 14.5834 11.3355 14.5834 11.666C14.5834 11.9966 14.6952 12.2737 14.9188 12.4973C15.1425 12.7209 15.4195 12.8327 15.7501 12.8327ZM18.0834 10.4993C18.414 10.4993 18.6911 10.3875 18.9147 10.1639C19.1383 9.94032 19.2501 9.66324 19.2501 9.33268C19.2501 9.00213 19.1383 8.72504 18.9147 8.50143C18.6911 8.27782 18.414 8.16602 18.0834 8.16602C17.7529 8.16602 17.4758 8.27782 17.2522 8.50143C17.0286 8.72504 16.9168 9.00213 16.9168 9.33268C16.9168 9.66324 17.0286 9.94032 17.2522 10.1639C17.4758 10.3875 17.7529 10.4993 18.0834 10.4993ZM18.0834 15.166C18.414 15.166 18.6911 15.0542 18.9147 14.8306C19.1383 14.607 19.2501 14.3299 19.2501 13.9993C19.2501 13.6688 19.1383 13.3917 18.9147 13.1681C18.6911 12.9445 18.414 12.8327 18.0834 12.8327C17.7529 12.8327 17.4758 12.9445 17.2522 13.1681C17.0286 13.3917 16.9168 13.6688 16.9168 13.9993C16.9168 14.3299 17.0286 14.607 17.2522 14.8306C17.4758 15.0542 17.7529 15.166 18.0834 15.166ZM20.4168 12.8327C20.7473 12.8327 21.0244 12.7209 21.248 12.4973C21.4716 12.2737 21.5834 11.9966 21.5834 11.666C21.5834 11.3355 21.4716 11.0584 21.248 10.8348C21.0244 10.6112 20.7473 10.4993 20.4168 10.4993C20.0862 10.4993 19.8091 10.6112 19.5855 10.8348C19.3619 11.0584 19.2501 11.3355 19.2501 11.666C19.2501 11.9966 19.3619 12.2737 19.5855 12.4973C19.8091 12.7209 20.0862 12.8327 20.4168 12.8327ZM9.91677 14.5827C10.1695 14.5827 10.3786 14.5 10.5438 14.3348C10.7091 14.1695 10.7918 13.9605 10.7918 13.7077V12.541H11.9584C12.2112 12.541 12.4202 12.4584 12.5855 12.2931C12.7508 12.1278 12.8334 11.9188 12.8334 11.666C12.8334 11.4132 12.7508 11.2042 12.5855 11.0389C12.4202 10.8737 12.2112 10.791 11.9584 10.791H10.7918V9.62435C10.7918 9.37157 10.7091 9.16254 10.5438 8.99727C10.3786 8.83199 10.1695 8.74935 9.91677 8.74935C9.66399 8.74935 9.45496 8.83199 9.28968 8.99727C9.1244 9.16254 9.04176 9.37157 9.04176 9.62435V10.791H7.8751C7.62232 10.791 7.41329 10.8737 7.24801 11.0389C7.08274 11.2042 7.0001 11.4132 7.0001 11.666C7.0001 11.9188 7.08274 12.1278 7.24801 12.2931C7.41329 12.4584 7.62232 12.541 7.8751 12.541H9.04176V13.7077C9.04176 13.9605 9.1244 14.1695 9.28968 14.3348C9.45496 14.5 9.66399 14.5827 9.91677 14.5827Z" fill="white"/>
</g>
</svg>
