<svg width="24" height="24" viewBox="0 0 24 24" fill="none" xmlns="http://www.w3.org/2000/svg">
<path fill-rule="evenodd" clip-rule="evenodd" d="M3.24358 10.4781C8.58812 8.14961 12.152 6.6145 13.9352 5.87281C19.0266 3.75514 20.0845 3.38728 20.774 3.37513C20.9257 3.37246 21.2648 3.41004 21.4845 3.58828C21.6699 3.73878 21.721 3.94208 21.7454 4.08477C21.7698 4.22746 21.8002 4.55251 21.7761 4.80649C21.5001 7.70543 20.3063 14.7404 19.699 17.9872C19.442 19.3611 18.9359 19.8217 18.4461 19.8668C17.3814 19.9648 16.5729 19.1632 15.5418 18.4873C13.9282 17.4296 13.0166 16.7711 11.4504 15.739C9.64031 14.5462 10.8137 13.8906 11.8453 12.8192C12.1152 12.5388 16.8061 8.27207 16.8969 7.88502C16.9083 7.83661 16.9188 7.65616 16.8116 7.56088C16.7044 7.4656 16.5462 7.49818 16.432 7.5241C16.2702 7.56083 13.6925 9.26459 8.6989 12.6354C7.96722 13.1378 7.3045 13.3826 6.71071 13.3698C6.05612 13.3556 4.79694 12.9997 3.86087 12.6954C2.71274 12.3222 1.80023 12.1249 1.87969 11.491C1.92108 11.1609 2.37571 10.8233 3.24358 10.4781Z" fill="white"/>
</svg>
