<svg width="58" height="28" viewBox="0 0 58 28" fill="none" xmlns="http://www.w3.org/2000/svg">
<path d="M16.0787 7.32113C16.586 6.6963 16.9284 5.85732 16.8382 5C16.0974 5.03636 15.1932 5.48245 14.6687 6.10777C14.1987 6.64326 13.7816 7.51737 13.8905 8.33876C14.7232 8.40996 15.5542 7.92844 16.0787 7.32113Z" fill="white"/>
<path d="M16.8262 8.49694C15.617 8.42593 14.5898 9.17354 14.0124 9.17354C13.435 9.17354 12.5526 8.53272 11.5955 8.55C10.352 8.56802 9.19721 9.26194 8.56691 10.3655C7.2674 12.5734 8.22453 15.8484 9.48669 17.6465C10.0999 18.5361 10.8391 19.5156 11.8118 19.4805C12.7331 19.4448 13.0926 18.8928 14.2116 18.8928C15.329 18.8928 15.6543 19.4805 16.627 19.4627C17.637 19.4448 18.2689 18.5727 18.8821 17.6822C19.5855 16.6681 19.8734 15.6888 19.8921 15.6352C19.8734 15.6173 17.9436 14.887 17.9265 12.6976C17.9078 10.8643 19.4408 9.99234 19.5124 9.93826C18.6471 8.67516 17.2946 8.53272 16.8262 8.49694Z" fill="white"/>
<path d="M27.3505 6.01955C29.976 6.01955 31.8061 7.80562 31.8061 10.406C31.8061 13.0156 29.9386 14.811 27.2836 14.811H24.3764V19.3733H22.2754V6.01953L27.3505 6.01955ZM24.3764 13.0712H26.7871C28.6158 13.0712 29.6569 12.0996 29.6569 10.4154C29.6569 8.73113 28.6157 7.76865 26.7964 7.76865H24.3764V13.0712Z" fill="white"/>
<path d="M32.3555 16.6052C32.3555 14.9023 33.6768 13.8567 36.0221 13.7271L38.7239 13.5698V12.8202C38.7239 11.7375 37.9831 11.0898 36.7442 11.0898C35.5723 11.0898 34.8409 11.6449 34.6619 12.5149H32.7492C32.8613 10.7564 34.3802 9.46094 36.8205 9.46094C39.2125 9.46094 40.7408 10.7102 40.7408 12.6629V19.3721H38.7986V17.7711H38.7519C38.1807 18.854 36.9326 19.5386 35.6377 19.5386C33.7063 19.5386 32.3555 18.3541 32.3555 16.6052ZM38.7239 15.7262V14.958L36.2945 15.106C35.0837 15.1894 34.3989 15.7168 34.3989 16.5498C34.3989 17.401 35.1132 17.9563 36.2011 17.9563C37.6173 17.9563 38.7239 16.9938 38.7239 15.7262Z" fill="white"/>
<path d="M42.5735 22.9536V21.3341C42.7229 21.371 43.0606 21.371 43.2302 21.371C44.1671 21.371 44.6744 20.9824 44.9842 19.9829C44.9842 19.9644 45.1616 19.3907 45.1616 19.3814L41.5977 9.63672H43.792L46.2883 17.5583H46.3257L48.8204 9.63672H50.9588L47.2626 19.881C46.4191 22.2409 45.4433 22.9998 43.3983 22.9998C43.2302 22.9998 42.7229 22.9813 42.5735 22.9536Z" fill="white"/>
</svg>
