<svg width="49" height="27" viewBox="0 0 49 27" fill="none" xmlns="http://www.w3.org/2000/svg">
<path d="M22.9709 13.235V18.8391H21.1885V5H25.9126C27.1106 5 28.1314 5.39832 28.967 6.19496C29.8204 6.99158 30.2471 7.96421 30.2471 9.11284C30.2471 10.2893 29.8204 11.2619 28.967 12.0493C28.1394 12.8366 27.1186 13.2257 25.9126 13.2257H22.9709V13.235ZM22.9709 6.70442V11.5305H25.9496C26.6549 11.5305 27.249 11.2897 27.7127 10.8173C28.1861 10.3448 28.4276 9.77054 28.4276 9.12211C28.4276 8.48296 28.1861 7.9179 27.7127 7.44548C27.249 6.95452 26.6645 6.71369 25.9496 6.71369H22.9709V6.70442Z" fill="white"/>
<path d="M34.9053 9.05859C36.224 9.05859 37.2625 9.41059 38.0241 10.1146C38.7857 10.8185 39.1657 11.782 39.1657 13.0047V18.8405H37.467V17.5251H37.3929C36.6603 18.6088 35.6765 19.1462 34.4512 19.1462C33.4014 19.1462 32.5287 18.8405 31.8235 18.2199C31.1182 17.5992 30.7656 16.8304 30.7656 15.904C30.7656 14.9221 31.1376 14.1441 31.8798 13.5698C32.6221 12.9861 33.6156 12.699 34.8489 12.699C35.9084 12.699 36.7795 12.8936 37.4573 13.2826V12.875C37.4573 12.2544 37.2158 11.7356 36.7247 11.3002C36.232 10.865 35.6572 10.6519 34.9987 10.6519C34.0052 10.6519 33.2162 11.0687 32.6414 11.9117L31.0716 10.9298C31.9346 9.67923 33.2162 9.05859 34.9053 9.05859ZM32.6028 15.9319C32.6028 16.395 32.7976 16.7841 33.1969 17.0897C33.5866 17.3955 34.0519 17.553 34.58 17.553C35.332 17.553 36.0002 17.2751 36.5846 16.7193C37.1707 16.1635 37.467 15.515 37.467 14.7648C36.9099 14.3293 36.1402 14.107 35.1468 14.107C34.4222 14.107 33.82 14.2831 33.337 14.6258C32.8443 14.9869 32.6028 15.4223 32.6028 15.9319Z" fill="white"/>
<path d="M48.8554 9.36328L42.9156 22.9987H41.0769L43.286 18.2281L39.3701 9.36328H41.3103L44.1313 16.1624H44.1683L46.9152 9.36328H48.8554Z" fill="white"/>
<path d="M15.8832 13.7035C15.8832 13.1237 15.8316 12.5689 15.735 12.0352H8.26562V15.0921L12.5663 15.0929C12.3924 16.1101 11.8304 16.9771 10.9706 17.5551V19.5385H13.5307C15.0266 18.1573 15.8832 16.1157 15.8832 13.7035Z" fill="#4285F4"/>
<path d="M10.9713 17.5579C10.2581 18.0378 9.34026 18.3185 8.26631 18.3185C6.19085 18.3185 4.43098 16.9234 3.80142 15.043H1.15918V17.0884C2.46822 19.6802 5.15875 21.4587 8.26631 21.4587C10.4142 21.4587 12.2176 20.7537 13.5314 19.5403L10.9713 17.5579Z" fill="#34A853"/>
<path d="M3.55048 13.5206C3.55048 12.9926 3.63903 12.4821 3.80005 12.0024V9.95703H1.15781C0.616805 11.0288 0.3125 12.2385 0.3125 13.5206C0.3125 14.8026 0.618415 16.0123 1.15781 17.084L3.80005 15.0387C3.63903 14.559 3.55048 14.0485 3.55048 13.5206Z" fill="#F2AE14"/>
<path d="M8.2663 8.72615C9.43848 8.72615 10.4883 9.1291 11.3175 9.91647L13.5862 7.65348C12.2079 6.37238 10.411 5.58594 8.2663 5.58594C5.15875 5.58594 2.46822 7.36446 1.15918 9.9563L3.80142 12.0017C4.43098 10.1212 6.19085 8.72615 8.2663 8.72615Z" fill="#E94235"/>
</svg>
