<svg width="43" height="28" viewBox="0 0 43 28" fill="none" xmlns="http://www.w3.org/2000/svg">
<path d="M26.0906 5.69141H16.9111V22.2016H26.0906V5.69141Z" fill="#FF5F00"/>
<path d="M17.4934 13.9454C17.4919 12.3553 17.852 10.7857 18.5462 9.35551C19.2403 7.9253 20.2506 6.67191 21.5003 5.69021C19.9526 4.47269 18.094 3.71554 16.1368 3.50528C14.1795 3.29502 12.2027 3.64016 10.4322 4.50123C8.66161 5.36231 7.16894 6.70457 6.12461 8.37462C5.08016 10.0447 4.52637 11.9751 4.52637 13.9454C4.52637 15.9155 5.08016 17.846 6.12461 19.516C7.16894 21.186 8.66161 22.5283 10.4322 23.3894C12.2027 24.2504 14.1795 24.5956 16.1368 24.3854C18.094 24.175 19.9526 23.4179 21.5003 22.2005C20.2506 21.2187 19.2403 19.9654 18.5462 18.5351C17.852 17.1049 17.4919 15.5354 17.4934 13.9454Z" fill="#D9222A"/>
<path d="M38.4735 13.9454C38.4735 15.9155 37.9198 17.8459 36.8754 19.516C35.8311 21.186 34.3384 22.5283 32.568 23.3894C30.7975 24.2504 28.8206 24.5956 26.8635 24.3854C24.9063 24.175 23.0477 23.4179 21.5 22.2005C22.7487 21.2178 23.7581 19.9641 24.4522 18.5341C25.1463 17.1041 25.5069 15.5351 25.5069 13.9454C25.5069 12.3555 25.1463 10.7865 24.4522 9.35647C23.7581 7.92649 22.7487 6.6729 21.5 5.69021C23.0477 4.47269 24.9063 3.71552 26.8635 3.50528C28.8206 3.29502 30.7975 3.64017 32.568 4.50125C34.3384 5.36233 35.8311 6.70461 36.8754 8.37465C37.9198 10.0447 38.4735 11.9751 38.4735 13.9454Z" fill="#FFA501"/>
</svg>
