<svg width="51" height="27" viewBox="0 0 51 27" fill="none" xmlns="http://www.w3.org/2000/svg">
<path d="M46.7672 16.7041C45.9454 17.5681 44.853 18 43.491 18C42.1292 18 41.0374 17.5681 40.2151 16.7041C39.4054 15.8284 39 14.7574 39 13.4911C39 12.2248 39.4054 11.1597 40.2151 10.2959C41.0374 9.43194 42.1292 9 43.491 9C44.853 9 45.9454 9.43194 46.7672 10.2959C47.5887 11.1597 48 12.2248 48 13.4911C48 14.7574 47.5887 15.8284 46.7672 16.7041ZM41.906 15.284C42.2933 15.7574 42.8218 15.9941 43.491 15.9941C44.1605 15.9941 44.6889 15.7574 45.0763 15.284C45.4755 14.7988 45.6752 14.2012 45.6752 13.4911C45.6752 12.7929 45.4755 12.2071 45.0763 11.7337C44.6889 11.2485 44.1605 11.0059 43.491 11.0059C42.8218 11.0059 42.2933 11.2485 41.906 11.7337C41.5186 12.2071 41.3248 12.7929 41.3248 13.4911C41.3248 14.2012 41.5186 14.7988 41.906 15.284Z" fill="white"/>
<path d="M37 18H34.7569V12.6909C34.7569 11.6 34.233 11.0545 33.1855 11.0545C32.373 11.0545 31.7258 11.4 31.2431 12.0909V18H29V9.21814H31.2431V10.3636C31.9846 9.45452 32.9797 9 34.2271 9C35.1459 9 35.8344 9.24846 36.2937 9.74542C36.7643 10.2424 37 10.9273 37 11.8V18Z" fill="white"/>
<path d="M25.7672 16.7041C24.9451 17.5681 23.8534 18 22.4914 18C21.1295 18 20.0373 17.5681 19.2156 16.7041C18.4053 15.8284 18 14.7574 18 13.4911C18 12.2248 18.4053 11.1597 19.2156 10.2959C20.0373 9.43194 21.1295 9 22.4914 9C23.8534 9 24.9451 9.43194 25.7672 10.2959C26.5889 11.1597 27 12.2248 27 13.4911C27 14.7574 26.5889 15.8284 25.7672 16.7041ZM20.9064 15.284C21.2938 15.7574 21.822 15.9941 22.4914 15.9941C23.1606 15.9941 23.689 15.7574 24.0764 15.284C24.4756 14.7988 24.6749 14.2012 24.6749 13.4911C24.6749 12.7929 24.4756 12.2071 24.0764 11.7337C23.689 11.2485 23.1606 11.0059 22.4914 11.0059C21.822 11.0059 21.2938 11.2485 20.9064 11.7337C20.5185 12.2071 20.3251 12.7929 20.3251 13.4911C20.3251 14.2012 20.5185 14.7988 20.9064 15.284Z" fill="white"/>
<path d="M16 18H13.7112V12.4545C13.7112 11.5212 13.2816 11.0545 12.4239 11.0545C12.0542 11.0545 11.708 11.1576 11.3866 11.3636C11.0767 11.5697 10.826 11.8061 10.6353 12.0727V18H8.34628V12.4545C8.34628 11.5212 7.91729 11.0545 7.0589 11.0545C6.7013 11.0545 6.36176 11.1576 6.03986 11.3636C5.71776 11.5697 5.46165 11.8121 5.27072 12.0909V18H3V9.21814H5.27072V10.3636C5.48531 10.0485 5.86097 9.74542 6.39746 9.45452C6.93396 9.15152 7.49993 9 8.09619 9C9.34788 9 10.1465 9.53332 10.4925 10.6C10.7668 10.1636 11.1715 9.78785 11.7087 9.47274C12.2566 9.15756 12.8406 9 13.4605 9C14.2712 9 14.8969 9.22421 15.3386 9.67273C15.7796 10.109 16 10.7697 16 11.6545V18Z" fill="white"/>
</svg>
