<svg width="27" height="27" viewBox="0 0 27 27" fill="none" xmlns="http://www.w3.org/2000/svg">
<path d="M15.9163 13.539C15.9163 15.033 14.8961 16.1123 13.488 16.1123C12.0725 16.1123 11.0441 15.0293 11.0441 13.5398C11.0441 12.0218 12.0493 10.9658 13.488 10.9658C14.8961 10.9658 15.917 12.0458 15.917 13.539H15.9163ZM24 7.626V19.374C24 21.927 21.9275 24 19.3737 24H7.62631C5.0725 24 3 21.927 3 19.374V7.626C3 5.073 5.0725 3.00001 7.62631 3.00001H19.3737C21.9275 2.99626 24 5.0685 24 7.626ZM17.7668 13.5863C17.7668 11.1413 15.9753 9.37425 13.5037 9.37425C11.0359 9.37425 9.24141 11.1263 9.24141 13.539V20.7615H11.0404V16.605C11.7055 17.3048 12.6629 17.7 13.7108 17.7C16.0613 17.7 17.7668 15.9713 17.7668 13.5863ZM18.0359 7.845L17.9537 7.779C15.4552 5.7645 11.5448 5.7615 9.04559 7.76325L8.96338 7.82925L9.78102 8.86575L9.79596 8.88525L9.88266 8.81925C11.9477 7.15725 15.0561 7.16475 17.1173 8.83425L17.2033 8.90175L18.0359 7.845Z" fill="white"/>
</svg>
