<svg width="45" height="28" viewBox="0 0 45 28" fill="none" xmlns="http://www.w3.org/2000/svg">
<path fill-rule="evenodd" clip-rule="evenodd" d="M15.8213 19.701L17.9176 8.39844H21.2706L19.1727 19.701H15.8213Z" fill="white"/>
<path fill-rule="evenodd" clip-rule="evenodd" d="M31.2874 8.64267C30.623 8.41369 29.5822 8.16797 28.2823 8.16797C24.9694 8.16797 22.6355 9.70092 22.6158 11.8979C22.597 13.522 24.2818 14.428 25.5535 14.9686C26.8587 15.5226 27.2974 15.876 27.2913 16.3707C27.283 17.1282 26.249 17.4744 25.2853 17.4744C23.9433 17.4744 23.2304 17.3031 22.1293 16.8811L21.6972 16.7014L21.2266 19.2316C22.0097 19.5471 23.4579 19.8205 24.9614 19.8346C28.4859 19.8346 30.7739 18.3193 30.8 15.9731C30.8126 14.6874 29.9193 13.7089 27.985 12.9023C26.813 12.3794 26.0952 12.0306 26.1029 11.5011C26.1029 11.0313 26.7104 10.5289 28.023 10.5289C29.1194 10.5133 29.9136 10.733 30.5324 10.9619L30.8329 11.0924L31.2874 8.64267Z" fill="white"/>
<path fill-rule="evenodd" clip-rule="evenodd" d="M39.917 8.39844H37.326C36.5235 8.39844 35.9228 8.5997 35.5703 9.33571L30.5908 19.6938H34.1117C34.1117 19.6938 34.6874 18.301 34.8176 17.9952C35.2024 17.9952 38.6226 18.0001 39.1116 18.0001C39.2119 18.3957 39.5195 19.6938 39.5195 19.6938H42.6307L39.917 8.39844ZM35.8068 15.695C36.0841 15.0439 37.1427 12.5356 37.1427 12.5356C37.1228 12.5657 37.4179 11.8812 37.5873 11.4568L37.8139 12.4313C37.8139 12.4313 38.4559 15.1293 38.59 15.695H35.8068Z" fill="white"/>
<path fill-rule="evenodd" clip-rule="evenodd" d="M12.9771 8.39844L9.69449 16.1059L9.34475 14.5396C8.73366 12.7339 6.82971 10.7777 4.70117 9.79836L7.7027 19.6829L11.2501 19.6792L16.5287 8.39844H12.9771Z" fill="white"/>
<path fill-rule="evenodd" clip-rule="evenodd" d="M6.6339 8.39844H1.22737L1.18457 8.63359C5.3908 9.56914 8.17403 11.83 9.32934 14.5466L8.15373 9.35263C7.95077 8.63694 7.36211 8.42337 6.6339 8.39844Z" fill="#F2AE14"/>
</svg>
