<svg width="16" height="16" viewBox="0 0 16 16" fill="none" xmlns="http://www.w3.org/2000/svg">
<g clip-path="url(#clip0_5975_7956)">
<path d="M9.93103 1.93009V0.826656C9.93103 0.674312 9.8075 0.550781 9.65516 0.550781H1.37931C1.22697 0.550781 1.10344 0.674312 1.10344 0.826656V1.93009C1.10344 2.08244 1.22697 2.20597 1.37931 2.20597H0.275875C0.123531 2.20597 0 2.32947 0 2.48181V3.58525C0 3.73759 0.123531 3.86112 0.275875 3.86112H0.827594C0.67525 3.86112 0.551719 3.98466 0.551719 4.137V5.24044C0.551719 5.39278 0.67525 5.51631 0.827594 5.51631H0.275875C0.123531 5.51631 0 5.63984 0 5.79219V6.89563C0 7.04797 0.123531 7.1715 0.275875 7.1715H1.37931C1.22697 7.1715 1.10344 7.29503 1.10344 7.44737V8.55081C1.10344 8.70316 1.22697 8.82669 1.37931 8.82669H0.275875C0.123531 8.82669 0 8.95022 0 9.10256V10.206C0 10.3583 0.123531 10.4819 0.275875 10.4819H0.827594C0.67525 10.4819 0.551719 10.6054 0.551719 10.7578V11.8612C0.551719 12.0135 0.67525 12.1371 0.827594 12.1371H0.275875C0.123531 12.1371 0 12.2606 0 12.4129V13.5164C0 13.6687 0.123531 13.7922 0.275875 13.7922H1.37931C1.22697 13.7922 1.10344 13.9158 1.10344 14.0681V15.1716C1.10344 15.3239 1.22697 15.4474 1.37931 15.4474H9.65519C9.80753 15.4474 9.93106 15.3239 9.93106 15.1716V7.44734C9.93106 7.295 9.80753 7.17147 9.65519 7.17147H8.55175C8.70409 7.17147 8.82763 7.04794 8.82763 6.89559V5.79216C8.82763 5.63981 8.70409 5.51628 8.55175 5.51628H9.10347C9.25581 5.51628 9.37934 5.39275 9.37934 5.24041V4.13697C9.37934 3.98462 9.25581 3.86109 9.10347 3.86109H8.55175C8.70409 3.86109 8.82763 3.73756 8.82763 3.58522V2.48178C8.82763 2.32944 8.70409 2.20591 8.55175 2.20591H9.65519C9.80753 2.20597 9.93103 2.08244 9.93103 1.93009Z" fill="#FFDC64"/>
<path d="M9.65504 7.17062H8.5516C8.70395 7.17062 8.82748 7.04709 8.82748 6.89475V6.58203C7.33904 7.50666 6.34473 9.15156 6.34473 11.0327C6.34473 12.8884 7.31179 14.5151 8.76679 15.4465H9.65507C9.80741 15.4465 9.93095 15.3229 9.93095 15.1706V7.4465C9.93088 7.29416 9.80738 7.17062 9.65504 7.17062Z" fill="#FFC850"/>
<path d="M8.27584 5.51847H7.72412C7.57177 5.51847 7.44824 5.39494 7.44824 5.24259V4.13916C7.44824 3.98681 7.57177 3.86328 7.72412 3.86328H8.27584C8.42818 3.86328 8.55171 3.98681 8.55171 4.13916V5.24259C8.55168 5.39494 8.42818 5.51847 8.27584 5.51847Z" fill="#FFF082"/>
<path d="M7.72408 3.86222H7.17236C7.02002 3.86222 6.89648 3.73869 6.89648 3.58634V2.48291C6.89648 2.33056 7.02002 2.20703 7.17236 2.20703H7.72408C7.87642 2.20703 7.99995 2.33056 7.99995 2.48291V3.58634C7.99995 3.73872 7.87642 3.86222 7.72408 3.86222Z" fill="#FFF082"/>
<path d="M7.72408 7.17081H7.17236C7.02002 7.17081 6.89648 7.04728 6.89648 6.89494V5.7915C6.89648 5.63916 7.02002 5.51562 7.17236 5.51562H7.72408C7.87642 5.51562 7.99995 5.63916 7.99995 5.7915V6.89494C7.99995 7.04731 7.87642 7.17081 7.72408 7.17081Z" fill="#FFF082"/>
<path d="M11.5866 15.4487C14.0243 15.4487 16.0004 13.4725 16.0004 11.0349C16.0004 8.59721 14.0243 6.62109 11.5866 6.62109C9.14897 6.62109 7.17285 8.59721 7.17285 11.0349C7.17285 13.4725 9.14897 15.4487 11.5866 15.4487Z" fill="#FFDC64"/>
<path d="M11.5867 14.896C13.7196 14.896 15.4487 13.1669 15.4487 11.0339C15.4487 8.90098 13.7196 7.17188 11.5867 7.17188C9.45371 7.17188 7.72461 8.90098 7.72461 11.0339C7.72461 13.1669 9.45371 14.896 11.5867 14.896Z" fill="#FFC850"/>
<path d="M11.5857 14.3433C13.414 14.3433 14.8961 12.8613 14.8961 11.033C14.8961 9.20475 13.414 7.72266 11.5857 7.72266C9.75748 7.72266 8.27539 9.20475 8.27539 11.033C8.27539 12.8613 9.75748 14.3433 11.5857 14.3433Z" fill="#FFF082"/>
<path d="M11.8622 10.8337V9.68597C12.19 9.75494 12.4139 9.93644 12.4139 10.104C12.4139 10.2565 12.5373 10.3799 12.6898 10.3799C12.8423 10.3799 12.9657 10.2565 12.9657 10.104C12.9657 9.61209 12.4991 9.21391 11.8623 9.12359V9.104C11.8623 8.95153 11.7389 8.82812 11.5864 8.82812C11.4339 8.82812 11.3105 8.9515 11.3105 9.104V9.12359C10.6737 9.21394 10.2071 9.61213 10.2071 10.104C10.2071 10.7993 10.8129 11.0711 11.3105 11.2363V12.3841C10.9827 12.3151 10.7588 12.1336 10.7588 11.9661C10.7588 11.8136 10.6354 11.6902 10.4829 11.6902C10.3304 11.6902 10.207 11.8136 10.207 11.9661C10.207 12.458 10.6737 12.8562 11.3105 12.9465V12.9661C11.3105 13.1185 11.4338 13.2419 11.5863 13.2419C11.7388 13.2419 11.8622 13.1186 11.8622 12.9661V12.9465C12.4991 12.8561 12.9657 12.4579 12.9657 11.9661C12.9657 11.2708 12.3598 10.9989 11.8622 10.8337ZM10.7588 10.104C10.7588 9.93647 10.9827 9.75497 11.3105 9.686V10.647C10.8995 10.4861 10.7588 10.339 10.7588 10.104ZM11.8622 12.3841V11.4231C12.2732 11.584 12.4139 11.7311 12.4139 11.9661C12.4139 12.1336 12.19 12.3151 11.8622 12.3841Z" fill="#E1A546"/>
<path d="M3.86206 2.20597H4.9655C4.81316 2.20597 4.68962 2.08244 4.68962 1.93009V0.826656C4.68962 0.674312 4.81316 0.550781 4.9655 0.550781H1.37931C1.22697 0.550781 1.10344 0.674312 1.10344 0.826656V1.93009C1.10344 2.08244 1.22697 2.20597 1.37931 2.20597H0.275875C0.123531 2.20597 0 2.32947 0 2.48181V3.58525C0 3.73759 0.123531 3.86112 0.275875 3.86112H0.827594C0.67525 3.86112 0.551719 3.98466 0.551719 4.137V5.24044C0.551719 5.39278 0.67525 5.51631 0.827594 5.51631H0.275875C0.123531 5.51631 0 5.63984 0 5.79219V6.89563C0 7.04797 0.123531 7.1715 0.275875 7.1715H1.37931C1.22697 7.1715 1.10344 7.29503 1.10344 7.44737V8.55081C1.10344 8.70316 1.22697 8.82669 1.37931 8.82669H0.275875C0.123531 8.82669 0 8.95022 0 9.10256V10.206C0 10.3583 0.123531 10.4819 0.275875 10.4819H0.827594C0.67525 10.4819 0.551719 10.6054 0.551719 10.7578V11.8612C0.551719 12.0135 0.67525 12.1371 0.827594 12.1371H0.275875C0.123531 12.1371 0 12.2606 0 12.4129V13.5164C0 13.6687 0.123531 13.7922 0.275875 13.7922H1.37931C1.22697 13.7922 1.10344 13.9158 1.10344 14.0681V15.1716C1.10344 15.3239 1.22697 15.4474 1.37931 15.4474H4.96553C4.81319 15.4474 4.68966 15.3239 4.68966 15.1716V14.0681C4.68966 13.9158 4.81319 13.7922 4.96553 13.7922H3.86209C3.70975 13.7922 3.58622 13.6687 3.58622 13.5164V12.4129C3.58622 12.2606 3.70975 12.1371 3.86209 12.1371H4.41381C4.26147 12.1371 4.13794 12.0135 4.13794 11.8612V10.7578C4.13794 10.6054 4.26147 10.4819 4.41381 10.4819H3.86209C3.70975 10.4819 3.58622 10.3583 3.58622 10.206V9.10256C3.58622 8.95022 3.70975 8.82669 3.86209 8.82669H4.96553C4.81319 8.82669 4.68966 8.70316 4.68966 8.55081V7.44737C4.68966 7.29503 4.81319 7.1715 4.96553 7.1715H3.86209C3.70975 7.1715 3.58622 7.04797 3.58622 6.89563V5.79219C3.58622 5.63984 3.70975 5.51631 3.86209 5.51631H4.41381C4.26147 5.51631 4.13794 5.39278 4.13794 5.24044V4.137C4.13794 3.98466 4.26147 3.86112 4.41381 3.86112H3.86209C3.70975 3.86112 3.58622 3.73759 3.58622 3.58525V2.48181C3.58622 2.32947 3.70972 2.20597 3.86206 2.20597Z" fill="#FFC850"/>
<path d="M8.82759 2.20597H8.27588C8.12353 2.20597 8 2.08244 8 1.93009V0.826656C8 0.674312 8.12353 0.550781 8.27588 0.550781H8.82759C8.97994 0.550781 9.10347 0.674312 9.10347 0.826656V1.93009C9.10344 2.08244 8.97994 2.20597 8.82759 2.20597Z" fill="#FFF082"/>
</g>
<defs>
<clipPath id="clip0_5975_7956">
<rect width="16" height="16" fill="white"/>
</clipPath>
</defs>
</svg>
