<svg width="32" height="32" viewBox="0 0 32 32" fill="none" xmlns="http://www.w3.org/2000/svg">
<g clip-path="url(#clip0_5675_5670)">
<path d="M18.5016 13.6689C18.5374 13.602 18.5744 13.5567 18.5861 13.4803C18.5946 13.4251 18.6024 13.3721 18.6095 13.3213C18.613 13.2956 18.6275 13.2827 18.6529 13.2825L19.912 13.2713C19.9251 13.2712 19.9375 13.2658 19.9467 13.2564C19.9559 13.2469 19.961 13.2342 19.961 13.2208V13.0383C19.961 13.0274 19.9663 13.022 19.9768 13.022H20.4282C20.433 13.022 20.4377 13.021 20.4421 13.019C20.4465 13.0171 20.4505 13.0143 20.4538 13.0107C20.4571 13.0072 20.4597 13.0029 20.4613 12.9983C20.463 12.9937 20.4637 12.9888 20.4635 12.9839L20.4592 12.8878C20.4587 12.8749 20.452 12.8683 20.4391 12.8681L19.9996 12.8658C19.991 12.8658 19.9827 12.8625 19.9763 12.8567C19.9698 12.8509 19.9657 12.8429 19.9646 12.8342L19.9445 12.6768C19.9441 12.6733 19.9428 12.67 19.941 12.6671C19.9391 12.6643 19.9366 12.6618 19.9336 12.6601C19.9307 12.6584 19.9274 12.6573 19.924 12.6571C19.9206 12.6568 19.9172 12.6573 19.914 12.6586C19.8751 12.6749 19.8471 12.7025 19.83 12.7415C19.8263 12.7501 19.8275 12.758 19.8338 12.7651L19.8526 12.7863C19.8628 12.7979 19.8602 12.8033 19.845 12.8026C19.7884 12.7998 19.7325 12.8148 19.6815 12.8148C19.0325 12.8151 18.3836 12.8128 17.7348 12.8078C17.671 12.8075 17.4915 12.8223 17.5316 12.7467C17.5359 12.7389 17.5422 12.734 17.5507 12.7319L17.6588 12.7055C17.6682 12.7033 17.674 12.6974 17.6764 12.6879C17.7284 12.4753 17.6906 12.2976 17.5603 12.12C17.3608 11.8481 17.0878 11.7344 16.7415 11.7789C16.4051 11.8219 16.239 12.1482 16.2824 12.4753C16.2834 12.4836 16.283 12.4919 16.2811 12.5002L16.2649 12.5701C16.2619 12.5832 16.2663 12.5923 16.2784 12.5975L16.3703 12.6379C16.3811 12.6426 16.386 12.651 16.385 12.663L16.3792 12.7234C16.3782 12.7337 16.3733 12.7432 16.3654 12.7498C16.3576 12.7565 16.3475 12.7597 16.3373 12.7589C16.2288 12.7488 16.1415 12.756 16.043 12.8099C15.7408 12.9748 15.5047 13.283 15.3833 13.5969C15.3327 13.7282 15.2885 13.8241 15.2508 13.8846C15.2464 13.8917 15.2435 13.8992 15.2422 13.9071C15.2379 13.9318 15.2279 13.9529 15.212 13.9705C15.205 13.978 15.1965 13.9815 15.1866 13.9812C15.1302 13.9783 14.9705 13.9615 14.9486 14.034C14.915 14.1455 14.8771 14.2555 14.8352 14.3639C14.7689 14.5354 14.7189 14.7399 14.6338 14.9212C14.6323 14.9243 14.632 14.9278 14.6329 14.931C14.6338 14.9343 14.6358 14.9371 14.6386 14.9388C14.7033 14.9801 14.7685 15.0219 14.8344 15.0644C14.9268 15.124 14.7991 15.3726 14.757 15.4495C14.7422 15.4763 14.7172 15.5047 14.6818 15.535C14.5916 15.612 14.5405 15.7128 14.5284 15.8374C14.5276 15.8455 14.5248 15.8528 14.5201 15.8592C14.4581 15.9441 14.4378 16.0285 14.404 16.1267C14.3748 16.2116 14.2628 16.1681 14.1933 16.2204C14.1862 16.2256 14.1824 16.2327 14.1819 16.2417C14.161 16.6107 14.141 16.9782 14.0704 17.342C14.0488 17.4539 13.8949 17.55 13.8297 17.6256C13.6733 17.8068 13.5457 18.0113 13.447 18.2388C13.3311 18.5066 13.1942 18.8049 13.0362 19.1338C12.9709 19.2696 12.9426 19.4281 12.9514 19.6092C12.9603 19.797 12.7491 19.9187 12.7277 20.1116C12.7269 20.1196 12.7288 20.1268 12.7336 20.1334L12.809 20.2346C12.8151 20.2429 12.8232 20.2471 12.8334 20.2471C13.0086 20.2472 13.1838 20.2471 13.3592 20.2468C13.4311 20.2468 13.4966 20.1916 13.5156 20.1207C13.5511 19.9868 13.5555 19.8436 13.5689 19.7061C13.5732 19.6641 13.5603 19.5611 13.5994 19.5142C14.0089 19.0215 14.4198 18.53 14.8324 18.0399C14.887 17.9749 14.9339 17.8219 14.9768 17.7364C15.0728 17.5462 15.1602 17.3519 15.2391 17.1537C15.2615 17.0975 15.3011 17.0377 15.3244 16.9766C15.3676 16.8634 15.4476 16.5928 15.5603 16.547C15.5683 16.5437 15.576 16.5441 15.5834 16.5483C15.5998 16.5569 15.614 16.5705 15.6258 16.5892C15.7868 16.8437 15.9674 17.1088 16.1677 17.3845C16.2319 17.4725 16.2966 17.5253 16.3931 17.5567C16.3972 17.558 16.401 17.5602 16.4041 17.5632C16.4073 17.5661 16.4098 17.5698 16.4114 17.5738C16.4131 17.5779 16.4139 17.5822 16.4137 17.5866C16.4135 17.591 16.4124 17.5953 16.4104 17.5992C16.3117 17.7951 16.2089 17.9841 16.1019 18.166C16.0751 18.2116 16.0565 18.2596 16.046 18.31C15.9803 18.6252 15.9224 18.9346 15.8348 19.2488C15.7882 19.4155 15.7429 19.5826 15.6987 19.7499C15.667 19.8698 15.6591 19.9925 15.6489 20.1127C15.6472 20.1327 15.6562 20.1427 15.6758 20.1427C15.9353 20.1432 16.1856 20.148 16.4266 20.1569C16.6051 20.1634 17.0901 20.1859 17.0855 19.9006C17.0854 19.8916 17.0817 19.8844 17.0746 19.8791C16.985 19.8104 16.8415 19.7861 16.7298 19.7615C16.6171 19.7366 16.5376 19.6237 16.4848 19.5261C16.4802 19.5176 16.4809 19.5097 16.4868 19.5023C16.549 19.4243 16.6201 19.3554 16.6691 19.2752C16.7453 19.1505 16.8011 19.0445 16.8364 18.9572C16.9915 18.5741 17.1478 18.1913 17.3054 17.8089C17.4461 17.4681 17.3222 17.1871 17.1556 16.8932C16.985 16.5918 16.816 16.2892 16.6488 15.9855C16.6376 15.9654 16.6117 15.9342 16.5711 15.8921C16.564 15.8848 16.56 15.876 16.5592 15.8656L16.529 15.4912C16.5286 15.4872 16.5291 15.4831 16.5303 15.4793C16.5315 15.4754 16.5335 15.4719 16.5361 15.4688C16.5387 15.4657 16.5419 15.4632 16.5454 15.4614C16.549 15.4596 16.5529 15.4586 16.5569 15.4583L16.6437 15.4526C16.6529 15.4521 16.6598 15.4479 16.6645 15.4399C16.6998 15.3824 16.7351 15.3252 16.7707 15.2682C16.8758 15.0996 16.9588 14.9119 17.053 14.7366C17.1 14.6496 17.0401 14.5884 16.9992 14.5188C16.9933 14.5088 16.9946 14.4999 17.0033 14.4921L17.1061 14.3978C17.113 14.3913 17.121 14.3896 17.13 14.3929C17.2391 14.4328 17.3406 14.4876 17.4344 14.5574C17.4422 14.5631 17.4507 14.5662 17.46 14.5667C17.7343 14.584 17.9328 14.4823 17.979 14.1826C17.9864 14.135 18.0108 14.1163 18.0567 14.1236C18.0686 14.1255 18.0751 14.1326 18.0763 14.1448L18.0849 14.2375C18.0853 14.2416 18.0865 14.2456 18.0884 14.2492C18.0903 14.2528 18.0929 14.256 18.096 14.2586C18.0992 14.2612 18.1027 14.2631 18.1066 14.2642C18.1104 14.2654 18.1144 14.2657 18.1184 14.2653C18.2821 14.2459 18.441 14.2078 18.5953 14.1508C18.6041 14.1475 18.6076 14.1411 18.6059 14.1316C18.5927 14.0646 18.5457 13.7085 18.5082 13.6898C18.4989 13.6852 18.4967 13.6782 18.5016 13.6689Z" stroke="#855701" stroke-width="2"/>
<path d="M8.54831 15.2386C8.61601 15.2408 8.68364 15.242 8.75118 15.2422C10.0735 15.2461 11.3959 15.248 12.7185 15.2479C13.1806 15.2479 13.2202 15.1303 13.402 14.7105C13.4936 14.4992 13.5816 14.286 13.666 14.0709C13.6694 14.0619 13.6664 14.0574 13.6569 14.0574C12.3313 14.0564 11.0056 14.0564 9.67971 14.0574C9.44917 14.0576 9.28015 14.0655 9.17266 14.0812C8.57412 14.1684 8.12251 14.4729 7.81782 14.9946C7.76602 15.0833 7.69323 15.2391 7.59946 15.4618C7.27683 16.2288 6.95547 16.9963 6.63538 17.7642C6.56251 17.939 6.51325 18.0895 6.49776 18.2586C6.45028 18.7729 6.82022 19.1805 7.30874 19.246C7.40319 19.2586 7.4841 19.2659 7.55147 19.2678C7.89865 19.2776 8.26266 19.278 8.64352 19.2691C9.47938 19.2491 10.318 19.2634 11.1541 19.2582C11.5218 19.2559 11.6028 19.0448 11.7277 18.7496C11.8191 18.5331 11.9066 18.3141 11.9903 18.0926C11.9912 18.0902 11.9916 18.0876 11.9913 18.085C11.991 18.0824 11.9901 18.08 11.9886 18.0778C11.9872 18.0757 11.9852 18.0739 11.9829 18.0727C11.9807 18.0715 11.9781 18.0708 11.9755 18.0708H8.01637C8.01359 18.0709 8.01085 18.0702 8.00839 18.0688C8.00594 18.0675 8.00385 18.0656 8.00231 18.0632C8.00078 18.0608 7.99984 18.058 7.99959 18.0552C7.99934 18.0523 7.99979 18.0494 8.00088 18.0468L9.05967 15.525C9.06323 15.5163 9.06094 15.5099 9.05282 15.5055C8.89413 15.4216 8.68618 15.3559 8.54475 15.2484C8.53578 15.2415 8.53697 15.2382 8.54831 15.2386Z" stroke="#855701" stroke-width="2"/>
<path d="M20.5824 15.2594C20.5814 15.2589 20.5806 15.2581 20.5802 15.2571C20.5797 15.2561 20.5796 15.255 20.5798 15.2539C20.5801 15.2528 20.5806 15.2518 20.5815 15.2511C20.5823 15.2504 20.5833 15.2501 20.5844 15.25C22.1126 15.2502 23.6373 15.2501 25.1585 15.2498C25.5369 15.2498 25.6953 15.0105 25.8471 14.6648C25.9311 14.4737 26.0112 14.2814 26.0876 14.0881C26.0888 14.0849 26.0893 14.0814 26.0889 14.078C26.0886 14.0746 26.0874 14.0714 26.0855 14.0685C26.0836 14.0657 26.0811 14.0634 26.0782 14.0618C26.0752 14.0602 26.0719 14.0593 26.0685 14.0593C24.623 14.0583 23.1781 14.0584 21.7338 14.0596C21.4996 14.0599 21.3306 14.0679 21.2271 14.0834C20.6045 14.1777 20.1096 14.5464 19.8336 15.1252C19.6948 15.4163 19.5723 15.7147 19.466 16.0204C19.2882 16.5314 19.5711 17.0581 20.0687 17.2055C20.148 17.2289 20.2596 17.2409 20.4036 17.2415C21.3565 17.2447 22.317 17.2454 23.2852 17.2435C23.2909 17.2435 23.2965 17.2449 23.3015 17.2476C23.3066 17.2503 23.3108 17.2543 23.314 17.2591C23.3171 17.264 23.319 17.2695 23.3195 17.2753C23.3199 17.2811 23.319 17.2869 23.3167 17.2922L22.997 18.0414C22.9877 18.0633 22.9714 18.0742 22.948 18.074C21.6257 18.0702 20.3038 18.0715 18.9823 18.0779C18.8144 18.079 18.6146 18.0981 18.5283 18.2714C18.3698 18.589 18.2248 18.9144 18.0931 19.2474C18.0899 19.2557 18.0927 19.2598 18.1015 19.2598C19.5657 19.265 21.0299 19.2654 22.494 19.2609C22.6874 19.2602 22.8376 19.2528 22.9447 19.2386C23.6089 19.1511 24.1432 18.7331 24.4133 18.1072C24.6736 17.5035 25.0961 16.7769 24.4611 16.2597C24.2584 16.0945 24.0472 16.0536 23.7885 16.0536C22.8245 16.0531 21.8597 16.0528 20.8942 16.0528C20.8828 16.0528 20.8792 16.0475 20.8833 16.0368L21.0803 15.5276C21.0835 15.5196 21.0834 15.5105 21.0802 15.5024C21.077 15.4943 21.0708 15.4878 21.063 15.4841L20.5824 15.2594Z" stroke="#855701" stroke-width="2"/>
<path d="M3 3H29V29H3V3ZM18.5015 13.6688C18.5373 13.602 18.5744 13.5567 18.586 13.4803C18.5945 13.425 18.6023 13.372 18.6094 13.3213C18.6129 13.2956 18.6274 13.2826 18.6528 13.2824L19.9119 13.2713C19.925 13.2712 19.9374 13.2658 19.9466 13.2563C19.9558 13.2469 19.9609 13.2341 19.9609 13.2208V13.0382C19.9609 13.0274 19.9662 13.0219 19.9767 13.0219H20.4281C20.4329 13.0219 20.4377 13.0209 20.4421 13.019C20.4465 13.0171 20.4504 13.0142 20.4537 13.0107C20.457 13.0071 20.4596 13.0029 20.4613 12.9983C20.4629 12.9937 20.4637 12.9888 20.4634 12.9838L20.4591 12.8878C20.4586 12.8748 20.4519 12.8683 20.439 12.8681L19.9995 12.8658C19.9909 12.8657 19.9826 12.8625 19.9762 12.8567C19.9698 12.8509 19.9656 12.8429 19.9645 12.8342L19.9444 12.6767C19.944 12.6733 19.9428 12.67 19.9409 12.6671C19.939 12.6642 19.9365 12.6618 19.9335 12.6601C19.9306 12.6583 19.9273 12.6573 19.9239 12.657C19.9205 12.6568 19.9171 12.6573 19.914 12.6586C19.875 12.6748 19.847 12.7024 19.8299 12.7415C19.8262 12.7501 19.8275 12.7579 19.8337 12.765L19.8525 12.7863C19.8627 12.7978 19.8601 12.8033 19.8449 12.8026C19.7883 12.7997 19.7324 12.8147 19.6814 12.8147C19.0324 12.8151 18.3835 12.8128 17.7347 12.8077C17.671 12.8075 17.4914 12.8223 17.5316 12.7466C17.5358 12.7389 17.5421 12.7339 17.5506 12.7319L17.6588 12.7055C17.6681 12.7032 17.6739 12.6973 17.6763 12.6878C17.7283 12.4752 17.6905 12.2976 17.5603 12.1199C17.3607 11.848 17.0877 11.7343 16.7414 11.7789C16.405 11.8219 16.2389 12.1482 16.2823 12.4752C16.2834 12.4835 16.2829 12.4918 16.2811 12.5001L16.2648 12.57C16.2618 12.5831 16.2663 12.5923 16.2783 12.5975L16.3702 12.6379C16.381 12.6425 16.3859 12.6509 16.3849 12.663L16.3791 12.7233C16.3781 12.7336 16.3732 12.7432 16.3653 12.7498C16.3575 12.7564 16.3474 12.7597 16.3372 12.7588C16.2288 12.7487 16.1414 12.756 16.0429 12.8098C15.7408 12.9748 15.5046 13.2829 15.3833 13.5968C15.3326 13.7282 15.2885 13.8241 15.2507 13.8845C15.2463 13.8916 15.2434 13.8991 15.2421 13.9071C15.2379 13.9317 15.2278 13.9529 15.2119 13.9705C15.2049 13.9779 15.1965 13.9815 15.1865 13.9811C15.1301 13.9783 14.9704 13.9614 14.9486 14.0339C14.9149 14.1455 14.8771 14.2554 14.8351 14.3639C14.7688 14.5353 14.7188 14.7399 14.6337 14.9212C14.6323 14.9242 14.6319 14.9277 14.6328 14.931C14.6337 14.9342 14.6358 14.937 14.6386 14.9388C14.7032 14.98 14.7685 15.0219 14.8343 15.0644C14.9267 15.1239 14.799 15.3725 14.7569 15.4494C14.7421 15.4762 14.7171 15.5047 14.6817 15.5349C14.5915 15.6119 14.5404 15.7127 14.5284 15.8374C14.5275 15.8455 14.5247 15.8527 14.52 15.8591C14.458 15.9441 14.4377 16.0285 14.4039 16.1266C14.3747 16.2116 14.2628 16.1681 14.1932 16.2204C14.1861 16.2256 14.1823 16.2326 14.1818 16.2416C14.161 16.6106 14.1409 16.9781 14.0703 17.342C14.0487 17.4538 13.8949 17.5499 13.8296 17.6255C13.6732 17.8068 13.5457 18.0112 13.447 18.2387C13.331 18.5065 13.1941 18.8048 13.0362 19.1337C12.9708 19.2696 12.9425 19.4281 12.9513 19.6092C12.9602 19.7969 12.749 19.9186 12.7277 20.1116C12.7268 20.1195 12.7288 20.1268 12.7335 20.1333L12.8089 20.2346C12.815 20.2429 12.8231 20.247 12.8333 20.247C13.0085 20.2472 13.1838 20.2471 13.3591 20.2468C13.431 20.2468 13.4965 20.1916 13.5155 20.1206C13.5511 19.9868 13.5554 19.8435 13.5688 19.706C13.5732 19.6641 13.5602 19.561 13.5993 19.5141C14.0088 19.0214 14.4198 18.53 14.8323 18.0399C14.8869 17.9749 14.9338 17.8218 14.9768 17.7364C15.0727 17.5461 15.1602 17.3519 15.239 17.1537C15.2614 17.0975 15.301 17.0377 15.3244 16.9766C15.3675 16.8634 15.4475 16.5928 15.5602 16.5469C15.5682 16.5437 15.5759 16.5441 15.5833 16.5482C15.5998 16.5569 15.6139 16.5705 15.6257 16.5891C15.7867 16.8436 15.9673 17.1087 16.1676 17.3844C16.2318 17.4725 16.2966 17.5253 16.393 17.5566C16.3971 17.558 16.4009 17.5602 16.4041 17.5631C16.4072 17.5661 16.4097 17.5697 16.4114 17.5738C16.413 17.5778 16.4138 17.5822 16.4136 17.5866C16.4134 17.5909 16.4123 17.5952 16.4103 17.5991C16.3116 17.7951 16.2088 17.984 16.1018 18.166C16.0751 18.2116 16.0565 18.2595 16.046 18.31C15.9802 18.6251 15.9223 18.9346 15.8347 19.2487C15.7882 19.4155 15.7428 19.5825 15.6986 19.7498C15.6669 19.8697 15.659 19.9925 15.6488 20.1126C15.6472 20.1326 15.6561 20.1426 15.6758 20.1426C15.9353 20.1432 16.1855 20.1479 16.4266 20.1569C16.6051 20.1634 17.09 20.1859 17.0854 19.9005C17.0853 19.8915 17.0816 19.8844 17.0745 19.879C16.9849 19.8104 16.8414 19.7861 16.7297 19.7615C16.617 19.7366 16.5375 19.6237 16.4847 19.5261C16.4801 19.5176 16.4808 19.5097 16.4867 19.5022C16.5489 19.4243 16.62 19.3554 16.669 19.2751C16.7452 19.1505 16.801 19.0445 16.8364 18.9571C16.9914 18.574 17.1477 18.1913 17.3053 17.8089C17.446 17.4681 17.3221 17.1871 17.1555 16.8932C16.9849 16.5917 16.816 16.2892 16.6487 15.9855C16.6376 15.9653 16.6117 15.9341 16.571 15.892C16.5639 15.8848 16.5599 15.876 16.5591 15.8656L16.5289 15.4911C16.5285 15.4871 16.529 15.4831 16.5302 15.4792C16.5314 15.4754 16.5334 15.4718 16.536 15.4688C16.5386 15.4657 16.5418 15.4632 16.5454 15.4614C16.5489 15.4596 16.5528 15.4585 16.5568 15.4582L16.6437 15.4525C16.6528 15.452 16.6597 15.4478 16.6645 15.4399C16.6997 15.3824 16.7351 15.3251 16.7706 15.2682C16.8757 15.0996 16.9587 14.9118 17.0529 14.7365C17.0999 14.6495 17.04 14.5884 16.9991 14.5187C16.9932 14.5087 16.9946 14.4998 17.0032 14.4921L17.106 14.3978C17.113 14.3912 17.1209 14.3896 17.1299 14.3929C17.2391 14.4327 17.3405 14.4876 17.4343 14.5573C17.4421 14.563 17.4507 14.5661 17.46 14.5666C17.7342 14.584 17.9327 14.4822 17.9789 14.1826C17.9863 14.1349 18.0107 14.1163 18.0566 14.1235C18.0685 14.1254 18.075 14.1325 18.0762 14.1448L18.0848 14.2375C18.0852 14.2416 18.0864 14.2455 18.0883 14.2492C18.0903 14.2528 18.0929 14.2559 18.096 14.2585C18.0991 14.2611 18.1027 14.263 18.1065 14.2642C18.1103 14.2653 18.1144 14.2657 18.1183 14.2652C18.282 14.2459 18.441 14.2077 18.5952 14.1507C18.604 14.1475 18.6075 14.1411 18.6058 14.1316C18.5926 14.0645 18.5457 13.7084 18.5081 13.6898C18.4988 13.6851 18.4966 13.6781 18.5015 13.6688ZM8.54811 15.2394C8.61581 15.2417 8.68344 15.2429 8.75098 15.243C10.0733 15.247 11.3957 15.2489 12.7183 15.2487C13.1804 15.2487 13.22 15.1312 13.4018 14.7114C13.4934 14.5001 13.5814 14.2869 13.6658 14.0718C13.6692 14.0628 13.6662 14.0583 13.6567 14.0583C12.3311 14.0573 11.0054 14.0573 9.67951 14.0583C9.44897 14.0585 9.27995 14.0664 9.17246 14.0821C8.57392 14.1693 8.1223 14.4738 7.81762 14.9955C7.76582 15.0842 7.69303 15.2399 7.59926 15.4626C7.27663 16.2297 6.95527 16.9972 6.63518 17.7651C6.5623 17.9399 6.51305 18.0904 6.49756 18.2595C6.45008 18.7738 6.82002 19.1814 7.30854 19.2469C7.40299 19.2595 7.4839 19.2667 7.55127 19.2686C7.89844 19.2785 8.26246 19.2789 8.64332 19.2699C9.47918 19.25 10.3178 19.2642 11.1539 19.2591C11.5216 19.2567 11.6026 19.0457 11.7275 18.7505C11.8189 18.534 11.9064 18.315 11.9901 18.0935C11.991 18.0911 11.9914 18.0885 11.9911 18.0859C11.9908 18.0833 11.9899 18.0808 11.9884 18.0787C11.987 18.0765 11.985 18.0748 11.9827 18.0736C11.9805 18.0723 11.9779 18.0717 11.9753 18.0717H8.01617C8.01339 18.0717 8.01065 18.0711 8.00819 18.0697C8.00574 18.0684 8.00365 18.0664 8.00211 18.064C8.00058 18.0616 7.99964 18.0589 7.99939 18.056C7.99914 18.0532 7.99959 18.0503 8.00068 18.0476L9.05947 15.5258C9.06303 15.5172 9.06074 15.5107 9.05262 15.5064C8.89393 15.4225 8.68598 15.3567 8.54455 15.2493C8.53558 15.2424 8.53676 15.2391 8.54811 15.2394ZM20.582 15.2583C20.581 15.2578 20.5803 15.257 20.5798 15.256C20.5793 15.255 20.5792 15.2539 20.5794 15.2529C20.5797 15.2518 20.5802 15.2508 20.5811 15.2501C20.5819 15.2494 20.5829 15.249 20.584 15.249C22.1122 15.2492 23.6369 15.2491 25.1581 15.2487C25.5365 15.2487 25.6949 15.0095 25.8467 14.6637C25.9307 14.4726 26.0108 14.2804 26.0872 14.087C26.0884 14.0839 26.0889 14.0804 26.0885 14.077C26.0882 14.0736 26.087 14.0704 26.0851 14.0675C26.0832 14.0647 26.0807 14.0624 26.0778 14.0608C26.0748 14.0591 26.0715 14.0583 26.0681 14.0583C24.6226 14.0573 23.1777 14.0573 21.7335 14.0585C21.4992 14.0589 21.3303 14.0668 21.2267 14.0824C20.6041 14.1766 20.1092 14.5454 19.8332 15.1242C19.6944 15.4153 19.5719 15.7137 19.4656 16.0194C19.2878 16.5304 19.5707 17.0571 20.0683 17.2044C20.1476 17.2279 20.2592 17.2399 20.4032 17.2404C21.3561 17.2437 22.3166 17.2444 23.2848 17.2425C23.2905 17.2425 23.2961 17.2438 23.3011 17.2466C23.3062 17.2493 23.3104 17.2533 23.3136 17.2581C23.3167 17.2629 23.3186 17.2685 23.3191 17.2743C23.3196 17.2801 23.3186 17.2859 23.3163 17.2912L22.9966 18.0404C22.9873 18.0623 22.971 18.0732 22.9476 18.073C21.6253 18.0692 20.3034 18.0705 18.9819 18.0769C18.814 18.0779 18.6142 18.0971 18.5279 18.2703C18.3695 18.588 18.2244 18.9133 18.0927 19.2464C18.0895 19.2547 18.0923 19.2588 18.1011 19.2588C19.5653 19.264 21.0295 19.2643 22.4937 19.2598C22.687 19.2592 22.8372 19.2517 22.9443 19.2376C23.6086 19.15 24.1428 18.7321 24.4129 18.1062C24.6732 17.5025 25.0957 16.7759 24.4607 16.2587C24.258 16.0935 24.0468 16.0526 23.7881 16.0526C22.8241 16.0521 21.8593 16.0518 20.8938 16.0518C20.8824 16.0518 20.8788 16.0464 20.8829 16.0357L21.0799 15.5266C21.0831 15.5185 21.083 15.5095 21.0798 15.5014C21.0766 15.4933 21.0705 15.4868 21.0626 15.4831L20.582 15.2583Z" fill="#FFAB01"/>
<path d="M18.5082 13.6898C18.5457 13.7085 18.5927 14.0646 18.6059 14.1316C18.6076 14.1411 18.6041 14.1475 18.5953 14.1508C18.441 14.2078 18.2821 14.2459 18.1184 14.2653C18.1144 14.2657 18.1104 14.2654 18.1066 14.2642C18.1027 14.2631 18.0992 14.2612 18.096 14.2586C18.0929 14.256 18.0903 14.2528 18.0884 14.2492C18.0865 14.2456 18.0853 14.2416 18.0849 14.2375L18.0763 14.1448C18.0751 14.1326 18.0686 14.1255 18.0567 14.1236C18.0108 14.1163 17.9864 14.135 17.979 14.1826C17.9328 14.4823 17.7343 14.584 17.46 14.5667C17.4507 14.5662 17.4422 14.5631 17.4344 14.5574C17.3406 14.4876 17.2391 14.4328 17.13 14.3929C17.121 14.3896 17.113 14.3913 17.1061 14.3978L17.0033 14.4921C16.9946 14.4999 16.9933 14.5088 16.9992 14.5188C17.0401 14.5884 17.1 14.6496 17.053 14.7366C16.9588 14.9119 16.8758 15.0996 16.7707 15.2682C16.7351 15.3252 16.6998 15.3824 16.6645 15.4399C16.6598 15.4479 16.6529 15.4521 16.6437 15.4526L16.5569 15.4583C16.5529 15.4586 16.549 15.4596 16.5454 15.4614C16.5419 15.4632 16.5387 15.4657 16.5361 15.4688C16.5335 15.4719 16.5315 15.4754 16.5303 15.4793C16.5291 15.4831 16.5286 15.4872 16.529 15.4912L16.5592 15.8656C16.56 15.876 16.564 15.8848 16.5711 15.8921C16.6117 15.9342 16.6376 15.9654 16.6488 15.9855C16.816 16.2892 16.985 16.5918 17.1556 16.8932C17.3222 17.1871 17.4461 17.4681 17.3054 17.8089C17.1478 18.1913 16.9915 18.5741 16.8364 18.9572C16.8011 19.0445 16.7453 19.1505 16.6691 19.2752C16.6201 19.3554 16.549 19.4243 16.4868 19.5023C16.4809 19.5097 16.4802 19.5176 16.4848 19.5261C16.5376 19.6237 16.6171 19.7366 16.7298 19.7615C16.8415 19.7861 16.985 19.8104 17.0746 19.8791C17.0817 19.8844 17.0854 19.8916 17.0855 19.9006C17.0901 20.1859 16.6051 20.1634 16.4266 20.1569C16.1856 20.148 15.9353 20.1432 15.6758 20.1427C15.6562 20.1427 15.6472 20.1327 15.6489 20.1127C15.6591 19.9925 15.667 19.8698 15.6987 19.7499C15.7429 19.5826 15.7882 19.4155 15.8348 19.2488C15.9224 18.9346 15.9803 18.6252 16.046 18.31C16.0565 18.2596 16.0751 18.2116 16.1019 18.166C16.2089 17.9841 16.3117 17.7951 16.4104 17.5992C16.4124 17.5953 16.4135 17.591 16.4137 17.5866C16.4139 17.5822 16.4131 17.5779 16.4114 17.5738C16.4098 17.5698 16.4073 17.5661 16.4041 17.5632C16.401 17.5602 16.3972 17.558 16.3931 17.5567C16.2966 17.5254 16.2319 17.4725 16.1677 17.3845C15.9674 17.1088 15.7868 16.8437 15.6258 16.5892C15.614 16.5705 15.5998 16.5569 15.5834 16.5483C15.576 16.5441 15.5683 16.5437 15.5603 16.547C15.4476 16.5928 15.3676 16.8634 15.3244 16.9766C15.3011 17.0377 15.2615 17.0975 15.2391 17.1537C15.1602 17.3519 15.0728 17.5462 14.9768 17.7364C14.9339 17.8219 14.887 17.9749 14.8324 18.0399C14.4198 18.53 14.0089 19.0215 13.5994 19.5142C13.5603 19.5611 13.5732 19.6641 13.5689 19.7061C13.5555 19.8436 13.5511 19.9868 13.5156 20.1207C13.4966 20.1916 13.4311 20.2468 13.3592 20.2468C13.1838 20.2471 13.0086 20.2472 12.8334 20.2471C12.8232 20.2471 12.8151 20.2429 12.809 20.2346L12.7336 20.1334C12.7288 20.1268 12.7269 20.1196 12.7277 20.1116C12.7491 19.9187 12.9603 19.797 12.9514 19.6092C12.9426 19.4281 12.9709 19.2696 13.0362 19.1338C13.1942 18.8049 13.3311 18.5066 13.447 18.2388C13.5457 18.0113 13.6733 17.8068 13.8297 17.6256C13.8949 17.55 14.0488 17.4539 14.0704 17.342C14.141 16.9782 14.161 16.6107 14.1819 16.2417C14.1824 16.2327 14.1862 16.2256 14.1933 16.2204C14.2628 16.1681 14.3748 16.2116 14.404 16.1267C14.4378 16.0285 14.4581 15.9441 14.5201 15.8592C14.5248 15.8528 14.5276 15.8455 14.5284 15.8374C14.5405 15.7128 14.5916 15.612 14.6818 15.535C14.7172 15.5047 14.7422 15.4763 14.757 15.4495C14.7991 15.3726 14.9268 15.124 14.8344 15.0644C14.7685 15.0219 14.7033 14.9801 14.6386 14.9388C14.6358 14.9371 14.6338 14.9343 14.6329 14.931C14.632 14.9278 14.6323 14.9243 14.6338 14.9212C14.7189 14.7399 14.7689 14.5354 14.8352 14.3639C14.8771 14.2555 14.915 14.1455 14.9486 14.034C14.9705 13.9615 15.1302 13.9783 15.1866 13.9812C15.1965 13.9815 15.205 13.978 15.212 13.9705C15.2279 13.9529 15.2379 13.9318 15.2422 13.9071C15.2435 13.8992 15.2464 13.8917 15.2508 13.8846C15.2885 13.8241 15.3327 13.7282 15.3833 13.5969C15.5047 13.283 15.7408 12.9748 16.043 12.8099C16.1415 12.756 16.2288 12.7488 16.3373 12.7589C16.3475 12.7597 16.3576 12.7565 16.3654 12.7498C16.3733 12.7432 16.3782 12.7337 16.3792 12.7234L16.385 12.663C16.386 12.651 16.3811 12.6426 16.3703 12.6379L16.2784 12.5975C16.2663 12.5923 16.2619 12.5832 16.2649 12.5701L16.2811 12.5002C16.283 12.4919 16.2834 12.4836 16.2824 12.4753C16.239 12.1482 16.4051 11.8219 16.7415 11.7789C17.0878 11.7344 17.3608 11.8481 17.5603 12.12C17.6906 12.2976 17.7284 12.4753 17.6764 12.6879C17.674 12.6974 17.6682 12.7033 17.6588 12.7055L17.5507 12.7319C17.5422 12.734 17.5359 12.7389 17.5316 12.7467C17.4915 12.8223 17.671 12.8075 17.7348 12.8078C18.3836 12.8128 19.0325 12.8151 19.6815 12.8148C19.7325 12.8148 19.7884 12.7998 19.845 12.8026C19.8602 12.8033 19.8628 12.7979 19.8526 12.7863L19.8338 12.7651C19.8275 12.758 19.8263 12.7501 19.83 12.7415C19.8471 12.7025 19.8751 12.6749 19.914 12.6586C19.9172 12.6573 19.9206 12.6568 19.924 12.6571C19.9274 12.6573 19.9307 12.6584 19.9336 12.6601C19.9366 12.6618 19.9391 12.6643 19.941 12.6671C19.9428 12.67 19.9441 12.6733 19.9445 12.6768L19.9646 12.8342C19.9657 12.8429 19.9698 12.8509 19.9763 12.8567C19.9827 12.8625 19.991 12.8658 19.9996 12.8658L20.4391 12.8681C20.452 12.8683 20.4587 12.8749 20.4592 12.8878L20.4635 12.9839C20.4637 12.9888 20.463 12.9937 20.4613 12.9983C20.4597 13.0029 20.4571 13.0072 20.4538 13.0107C20.4505 13.0143 20.4465 13.0171 20.4421 13.019C20.4377 13.021 20.433 13.022 20.4282 13.022H19.9768C19.9663 13.022 19.961 13.0274 19.961 13.0383V13.2208C19.961 13.2342 19.9559 13.2469 19.9467 13.2564C19.9375 13.2658 19.9251 13.2712 19.912 13.2713L18.6529 13.2825C18.6275 13.2827 18.613 13.2956 18.6095 13.3213C18.6024 13.3721 18.5946 13.4251 18.5861 13.4803C18.5744 13.5567 18.5374 13.602 18.5016 13.6689C18.4967 13.6782 18.4989 13.6852 18.5082 13.6898Z" fill="#0B0301"/>
<path d="M8.54475 15.2484C8.68618 15.3559 8.89413 15.4216 9.05282 15.5055C9.06094 15.5099 9.06323 15.5163 9.05967 15.525L8.00088 18.0468C7.99979 18.0494 7.99934 18.0523 7.99959 18.0552C7.99984 18.058 8.00078 18.0608 8.00231 18.0632C8.00385 18.0656 8.00594 18.0675 8.00839 18.0688C8.01085 18.0702 8.01359 18.0709 8.01637 18.0708H11.9755C11.9781 18.0708 11.9807 18.0715 11.9829 18.0727C11.9852 18.0739 11.9872 18.0757 11.9886 18.0778C11.9901 18.08 11.991 18.0824 11.9913 18.085C11.9916 18.0876 11.9912 18.0902 11.9903 18.0926C11.9066 18.3141 11.8191 18.5331 11.7277 18.7496C11.6028 19.0448 11.5218 19.2559 11.1541 19.2582C10.318 19.2634 9.47938 19.2491 8.64352 19.2691C8.26266 19.278 7.89865 19.2776 7.55147 19.2678C7.4841 19.2659 7.40319 19.2586 7.30874 19.246C6.82022 19.1805 6.45028 18.7729 6.49776 18.2586C6.51325 18.0895 6.56251 17.939 6.63538 17.7642C6.95547 16.9963 7.27683 16.2288 7.59946 15.4618C7.69323 15.2391 7.76602 15.0833 7.81782 14.9946C8.12251 14.4729 8.57412 14.1684 9.17266 14.0812C9.28015 14.0655 9.44917 14.0576 9.67971 14.0574C11.0056 14.0564 12.3313 14.0564 13.6569 14.0574C13.6664 14.0574 13.6694 14.0619 13.666 14.0709C13.5816 14.286 13.4936 14.4992 13.402 14.7105C13.2202 15.1303 13.1806 15.2479 12.7185 15.2479C11.3959 15.248 10.0735 15.2461 8.75118 15.2422C8.68364 15.242 8.61601 15.2408 8.54831 15.2386C8.53697 15.2382 8.53578 15.2415 8.54475 15.2484Z" fill="#0B0301"/>
<path d="M20.5819 15.2574L21.0625 15.4822C21.0704 15.4858 21.0765 15.4924 21.0797 15.5005C21.0829 15.5086 21.083 15.5176 21.0798 15.5257L20.8828 16.0348C20.8787 16.0455 20.8824 16.0509 20.8937 16.0509C21.8592 16.0509 22.824 16.0511 23.788 16.0516C24.0467 16.0516 24.258 16.0926 24.4606 16.2578C25.0956 16.7749 24.6731 17.5016 24.4128 18.1052C24.1427 18.7311 23.6085 19.1491 22.9442 19.2366C22.8371 19.2508 22.6869 19.2582 22.4936 19.2589C21.0294 19.2634 19.5652 19.2631 18.101 19.2579C18.0922 19.2579 18.0894 19.2537 18.0926 19.2454C18.2243 18.9124 18.3694 18.5871 18.5278 18.2694C18.6141 18.0962 18.8139 18.077 18.9818 18.076C20.3033 18.0696 21.6252 18.0683 22.9475 18.0721C22.9709 18.0723 22.9872 18.0614 22.9965 18.0394L23.3162 17.2903C23.3185 17.285 23.3195 17.2791 23.319 17.2734C23.3185 17.2676 23.3166 17.262 23.3135 17.2572C23.3103 17.2523 23.3061 17.2484 23.3011 17.2456C23.296 17.2429 23.2904 17.2415 23.2847 17.2416C22.3165 17.2435 21.356 17.2428 20.4031 17.2395C20.2591 17.239 20.1475 17.227 20.0682 17.2035C19.5706 17.0562 19.2877 16.5294 19.4655 16.0185C19.5718 15.7127 19.6943 15.4143 19.8331 15.1233C20.1091 14.5445 20.604 14.1757 21.2266 14.0814C21.3302 14.0659 21.4991 14.058 21.7334 14.0576C23.1776 14.0564 24.6225 14.0563 26.068 14.0574C26.0714 14.0574 26.0747 14.0582 26.0777 14.0598C26.0806 14.0614 26.0832 14.0638 26.085 14.0666C26.0869 14.0694 26.0881 14.0727 26.0884 14.0761C26.0888 14.0795 26.0883 14.0829 26.0871 14.0861C26.0108 14.2795 25.9306 14.4717 25.8466 14.6628C25.6948 15.0085 25.5364 15.2478 25.158 15.2478C23.6368 15.2482 22.1121 15.2482 20.5839 15.2481C20.5829 15.2481 20.5818 15.2485 20.581 15.2492C20.5802 15.2499 20.5796 15.2509 20.5793 15.2519C20.5791 15.253 20.5792 15.2541 20.5797 15.2551C20.5802 15.2561 20.5809 15.2569 20.5819 15.2574Z" fill="#0B0301"/>
</g>
<defs>
<clipPath id="clip0_5675_5670">
<rect x="3" y="3" width="26" height="26" rx="4" fill="white"/>
</clipPath>
</defs>
</svg>
