<svg width="32" height="32" viewBox="0 0 32 32" fill="none" xmlns="http://www.w3.org/2000/svg">
<path fill-rule="evenodd" clip-rule="evenodd" d="M8.19985 18.0007L13.3332 23.556L8.56652 24.6673L5.99985 22.4453L8.19985 18.0007ZM21.7479 7.33398L23.9999 8.57198L23.2492 12.6673L17.9945 9.23865L21.7479 7.33398ZM7.74985 7.33398C7.99985 7.33398 8.20052 7.34465 8.49985 7.58398C8.91652 7.91732 10.4532 9.00532 10.4532 9.00532L10.7319 9.50065C11.2392 9.52598 11.2519 9.57198 11.8925 10.0427L25.9999 19.612C25.8912 19.8473 24.2139 24.6673 24.2139 24.6673H21.6245L5.99985 8.16732C5.99985 8.16732 6.25452 8.07198 6.49985 7.91732C6.88452 7.67532 7.36852 7.33398 7.74985 7.33398ZM9.66652 4.00065H3.99985C3.64785 4.17665 3.33319 4.38065 3.33319 5.08398V9.66732V11.084L3.99185 12.916L3.33319 13.834V14.584L3.99985 15.084V16.0007L3.33319 16.6673V19.1673L3.99985 19.584V22.334C3.30385 22.8293 3.33319 23.4173 3.33319 24.0933V27.2507C4.89252 27.64 4.63385 28.0007 6.41652 28.0007C7.99185 28.0007 8.99985 28.0007 8.99985 28.0007C9.24119 27.9853 9.42919 27.9347 9.66652 27.912C10.3292 27.848 10.7499 27.334 10.7499 27.334L12.4999 28.0007L13.1665 27.334C13.1665 27.334 14.0405 28.416 14.2499 28.6673L14.8332 28.0007L16.6665 28.6673C16.6665 28.6673 17.3465 28.0147 18.0832 28.0007H21.6665C21.7212 27.948 22.3332 27.334 22.3332 27.334C22.6139 27.502 22.3659 28.0007 24.9165 28.0007C25.6205 28.0007 26.2499 27.834 26.2499 27.834C26.1419 27.474 26.1299 27.5473 25.9165 27.334C25.9165 27.334 27.5832 27.334 28.6665 28.0007V17.672L27.3332 18.084C27.3592 17.8727 27.9752 17.592 27.9999 17.1673C28.0312 16.632 27.9705 14.7767 27.8925 14.3847C27.8525 14.1847 27.4705 13.5986 27.3332 13.4173C27.4965 12.9767 27.9999 12.6673 27.9999 12.6673V12.1673L28.6665 11.7787V8.96398L27.9999 6.16732L28.6665 5.44532V4.64798L27.9625 4.03798L25.6759 3.65998L25.1479 4.03798L24.8839 3.59798C24.8839 3.59798 21.4279 3.33532 20.8012 3.33532C19.9992 3.33532 20.1159 3.39532 19.8445 4.29865L18.6939 4.41598L18.5832 4.00065H17.4165L17.6085 3.78932C17.8125 3.59665 17.7412 3.67398 17.9005 3.33398H13.8885C13.8259 3.44865 13.5965 3.70865 13.4159 4.00065C13.4159 4.00065 13.0639 3.99732 12.7999 4.17332C12.5359 4.34932 12.5372 4.66732 12.1852 4.66732C11.8332 4.66732 11.1032 4.66732 10.6899 4.66732C9.80985 4.66732 9.66652 4.00065 9.66652 4.00065Z" fill="#F44336"/>
</svg>
