<svg width="43" height="43" viewBox="0 0 43 43" fill="none" xmlns="http://www.w3.org/2000/svg">
<path d="M15.3658 5.19148L2.85736 17.6989C-0.285788 20.8421 -0.285788 25.9371 2.85736 29.0802L7.26816 33.491L8.18657 34.4095L12.3113 30.2848L7.84141 25.8149C6.50147 24.475 6.50147 22.3042 7.84141 20.9643L18.6301 10.1755C19.9701 8.83558 22.1409 8.83558 23.4808 10.1755L37.8322 24.5269L41.9569 20.4022L26.7451 5.19046C23.604 2.04832 18.508 2.04832 15.3658 5.19148Z" fill="#FF4A18"/>
<path d="M18.0693 24.527L23.8262 30.2839L18.0693 36.0407L22.194 40.1664L32.0766 30.2839L22.194 20.4023L18.0693 24.527Z" fill="#FF4A18"/>
</svg>
