<svg width="127" height="24" viewBox="0 0 127 24" fill="none" xmlns="http://www.w3.org/2000/svg">
<g clip-path="url(#clip0_5536_15350)">
<path d="M42.2515 6.41797H43.3486C44.2515 6.41797 44.9258 7.16083 44.9258 7.99511V16.9894C44.9258 17.9437 44.7315 18.8008 44.3372 19.5551C43.9429 20.3094 43.36 20.9037 42.5715 21.3437C41.7886 21.7837 40.84 22.0065 39.7258 22.0065C38.2343 22.0065 37.0115 21.6637 36.0572 20.9837C35.1086 20.3037 34.5658 19.378 34.4401 18.2008C34.4401 18.1951 34.4401 18.1837 34.4515 18.1837H37.0743C37.2115 18.658 37.5143 19.0294 37.9772 19.3094C38.44 19.5894 39 19.7265 39.6572 19.7265C40.4286 19.7265 41.0515 19.498 41.5315 19.0465C42.0115 18.5951 42.2515 17.9037 42.2515 16.9837V15.418C42.2515 15.418 42.2343 15.4008 42.2286 15.4123C41.8915 15.8808 41.4286 16.2751 40.84 16.5894C40.24 16.9151 39.5543 17.0751 38.7829 17.0751C37.8972 17.0751 37.0915 16.8523 36.3543 16.4065C35.6229 15.9608 35.0458 15.3265 34.6172 14.5151C34.1943 13.7037 33.9829 12.7665 33.9829 11.7094C33.9829 10.6523 34.1943 9.73797 34.6172 8.93225C35.0401 8.12654 35.6172 7.50368 36.3429 7.0694C37.0686 6.63511 37.88 6.41797 38.7772 6.41797M41.8686 10.1208C41.6172 9.6694 41.2743 9.32083 40.8458 9.07511C40.4172 8.83511 39.9543 8.7094 39.4629 8.7094C38.9715 8.7094 38.5143 8.8294 38.0972 9.06368C37.68 9.29797 37.3429 9.64654 37.0858 10.098C36.8286 10.5494 36.6972 11.0865 36.6972 11.7094C36.6972 12.3323 36.8286 12.8751 37.0858 13.338C37.3429 13.8065 37.6858 14.1608 38.1086 14.4123C38.5315 14.6637 38.9829 14.7837 39.4629 14.7837C39.9429 14.7837 40.4172 14.6637 40.8458 14.418C41.2743 14.178 41.6172 13.8294 41.8686 13.3723C42.12 12.9208 42.2458 12.3723 42.2458 11.7437C42.2458 11.1151 42.12 10.5665 41.8686 10.1151V10.1208Z" fill="white"/>
<path d="M49.6627 16.4294C48.8684 15.9894 48.2398 15.3608 47.7884 14.5551C47.337 13.7494 47.1084 12.8123 47.1084 11.7551C47.1084 10.698 47.3427 9.76654 47.8055 8.95511C48.2741 8.1494 48.9084 7.52083 49.7198 7.08083C50.5255 6.64083 51.4284 6.41797 52.4284 6.41797C53.4284 6.41797 54.3255 6.64083 55.137 7.08083C55.9427 7.52083 56.5827 8.1494 57.0512 8.95511C57.5198 9.76654 57.7484 10.698 57.7484 11.7551C57.7484 12.8123 57.5084 13.7437 57.0284 14.5551C56.5484 15.3665 55.9027 15.9894 55.0855 16.4294C54.2684 16.8694 53.3598 17.0923 52.3541 17.0923C51.3484 17.0923 50.4627 16.8694 49.6684 16.4294H49.6627ZM53.6855 14.4694C54.1027 14.2408 54.4341 13.8923 54.6855 13.4351C54.937 12.9723 55.057 12.418 55.057 11.7551C55.057 10.7723 54.7998 10.018 54.2798 9.48654C53.7655 8.95511 53.1313 8.69225 52.3884 8.69225C51.6455 8.69225 51.017 8.95511 50.5141 9.48654C50.0113 10.018 49.7598 10.7723 49.7598 11.7551C49.7598 12.738 50.0055 13.4923 50.497 14.0237C50.9884 14.5551 51.6055 14.818 52.3541 14.818C52.8284 14.818 53.2741 14.7037 53.6855 14.4751V14.4694Z" fill="#FF4A18"/>
<path d="M63.8973 6.88596C64.4402 6.57167 65.063 6.41739 65.7659 6.41739V9.17739H65.0744C64.2516 9.17739 63.6287 9.37167 63.2059 9.76025C62.7887 10.1488 62.5773 10.8231 62.5773 11.7888V17.0802H59.9487V6.39453H62.5773V8.17739C62.9144 7.62882 63.3544 7.19453 63.903 6.88025L63.8973 6.88596Z" fill="white"/>
<path d="M74.4686 6.41797H76.2857C77.3257 6.41797 77.8629 7.3094 77.8629 7.99511V16.6123C77.8629 16.8808 77.6457 17.098 77.3772 17.098H75.2286V15.418C74.8914 15.9037 74.4286 16.3037 73.84 16.6237C73.2515 16.9437 72.5657 17.098 71.7943 17.098C70.9257 17.098 70.1315 16.8751 69.4172 16.4237C68.7029 15.978 68.1372 15.3437 67.72 14.5323C67.3029 13.7151 67.0972 12.7837 67.0972 11.7265C67.0972 10.6694 67.3029 9.75511 67.72 8.94368C68.1372 8.13797 68.7029 7.51511 69.4172 7.07511C70.1315 6.64083 70.9315 6.42368 71.8172 6.42368M74.8686 10.1437C74.6172 9.68654 74.28 9.33797 73.8572 9.09226C73.4343 8.84654 72.9772 8.72654 72.4915 8.72654C72.0057 8.72654 71.5543 8.84654 71.1429 9.08083C70.7315 9.32083 70.3943 9.66368 70.1429 10.1208C69.8857 10.578 69.76 11.1151 69.76 11.7437C69.76 12.3723 69.8857 12.9151 70.1429 13.3837C70.4 13.8523 70.7372 14.2123 71.1543 14.4637C71.5714 14.7151 72.0172 14.8408 72.4915 14.8408C72.9657 14.8408 73.4343 14.7208 73.8572 14.4751C74.28 14.2294 74.6172 13.8808 74.8686 13.4237C75.12 12.9665 75.2457 12.4237 75.2457 11.7837C75.2457 11.1437 75.12 10.6008 74.8686 10.1437Z" fill="white"/>
<path d="M89.5772 7.6061C90.3486 8.40039 90.7372 9.50325 90.7372 10.9204V17.0918H88.0801V11.2804C88.0801 10.4461 87.8686 9.80039 87.4515 9.35468C87.0343 8.90325 86.4629 8.68039 85.7429 8.68039C85.0229 8.68039 84.4286 8.90325 84.0058 9.35468C83.5829 9.8061 83.3715 10.4461 83.3715 11.2804V17.0918H80.7144V6.40039H83.3715V7.88039C83.7258 7.42325 84.1772 7.06896 84.7315 6.8061C85.2801 6.54896 85.8858 6.41753 86.5429 6.41753C87.7943 6.41753 88.8115 6.81182 89.5829 7.6061H89.5772Z" fill="white"/>
<path d="M99.6574 17.092L96.0116 12.532V17.092H93.2974V2.17773H96.0116V10.932L99.6174 6.39488H103.143L98.4116 11.7606L103.177 17.092H99.6516H99.6574Z" fill="white"/>
<path d="M113.869 12.5378H106.309C106.372 13.2864 106.634 13.8693 107.092 14.2921C107.554 14.715 108.12 14.9264 108.789 14.9264C109.76 14.9264 110.452 14.5093 110.857 13.675H113.674C113.377 14.6693 112.806 15.4864 111.96 16.1264C111.114 16.7664 110.074 17.0864 108.846 17.0864C107.852 17.0864 106.96 16.8635 106.166 16.4235C105.377 15.9835 104.76 15.355 104.32 14.5493C103.88 13.7435 103.657 12.8064 103.657 11.7493C103.657 10.6921 103.874 9.73782 104.309 8.93211C104.743 8.1264 105.354 7.50354 106.137 7.06354C106.92 6.62925 107.823 6.41211 108.846 6.41211C109.869 6.41211 110.709 6.62354 111.486 7.04639C112.263 7.46925 112.869 8.06925 113.297 8.84639C113.726 9.62354 113.943 10.515 113.943 11.5264C113.943 11.8978 113.92 12.235 113.869 12.5321V12.5378ZM111.24 10.7835C111.229 10.1093 110.983 9.57211 110.514 9.17211C110.04 8.76639 109.463 8.56639 108.777 8.56639C108.132 8.56639 107.589 8.76068 107.143 9.15497C106.703 9.54925 106.429 10.0921 106.332 10.7893H111.24V10.7835Z" fill="white"/>
<path d="M116.171 8.91965C116.588 8.10822 117.16 7.48537 117.88 7.05108C118.606 6.61679 119.406 6.39394 120.291 6.39394C120.966 6.39394 121.606 6.54251 122.217 6.83394C122.828 7.12537 123.314 7.51394 123.674 8.00536V2.2168H126.331V17.0911H123.674V15.3882C123.348 15.8968 122.897 16.3082 122.308 16.6225C121.72 16.9368 121.046 17.0911 120.268 17.0911C119.394 17.0911 118.6 16.8682 117.874 16.4168C117.148 15.9654 116.583 15.3368 116.166 14.5196C115.748 13.7025 115.628 12.7654 115.628 11.7082C115.628 10.6511 115.748 9.73108 116.166 8.91965H116.171ZM123.326 10.1082C123.074 9.65108 122.737 9.30251 122.314 9.06251C121.891 8.81679 121.434 8.69679 120.948 8.69679C120.463 8.69679 120.011 8.81679 119.6 9.05108C119.188 9.28536 118.857 9.63394 118.6 10.0911C118.343 10.5482 118.217 11.0854 118.217 11.7082C118.217 12.3311 118.343 12.8796 118.6 13.3425C118.857 13.8111 119.194 14.1711 119.611 14.4168C120.028 14.6682 120.474 14.7882 120.948 14.7882C121.423 14.7882 121.891 14.6682 122.314 14.4225C122.737 14.1768 123.074 13.8282 123.326 13.3768C123.577 12.9196 123.697 12.3768 123.697 11.7425C123.697 11.1082 123.571 10.5596 123.326 10.1082Z" fill="white"/>
<path d="M23.68 0H20.52C19.6457 0 18.9429 0.708572 18.9429 1.57714V4.73714C18.9429 5.61143 19.6514 6.31429 20.52 6.31429H23.68C24.5543 6.31429 25.2572 5.60572 25.2572 4.73714V1.58286C25.2572 0.708572 24.5486 0 23.68 0Z" fill="#FF4A18"/>
<path d="M25.257 14.8283V22.1083C25.2512 23.1254 24.4455 23.9597 23.4398 23.9997H20.7484C19.737 23.9597 18.937 23.1254 18.937 22.1083V20.9197C18.937 20.9197 18.937 20.8626 18.937 20.8397C18.937 20.8397 18.937 20.8283 18.937 20.8226V17.914C18.9427 17.8397 18.9484 17.7597 18.9484 17.6797C18.9484 17.5997 18.9484 17.5254 18.937 17.4454V17.4683C18.937 17.4683 18.937 17.4511 18.937 17.4397C18.8227 16.194 17.8112 15.2111 16.5541 15.1483C16.5084 15.1483 16.4684 15.1483 16.4227 15.1483C16.377 15.1483 16.337 15.1483 16.2913 15.1483H13.2741V15.1426H11.9998C11.7827 15.1426 11.5713 15.1026 11.3713 15.034C10.6341 14.7768 10.1084 14.074 10.1084 13.2511V10.7254C10.1084 9.90256 10.6341 9.1997 11.3713 8.94256C11.5655 8.87398 11.777 8.83398 11.9998 8.83398H19.2627C22.577 8.83398 25.2627 11.514 25.2627 14.8283H25.257Z" fill="white"/>
<path d="M16.4114 22.2629C16.3714 23.2343 15.5143 23.9886 14.5257 23.9886H5.78857C2.64 23.8914 0.102857 21.3543 0 18.2057V5.78857C0.108571 2.64 2.64 0.108571 5.78857 0H14.52C15.5657 0 16.4114 0.845715 16.4114 1.89143V4.42286C16.4114 5.44 15.6114 6.26857 14.6057 6.31429H14.52H10.1028C10.0457 6.31429 9.99428 6.31429 9.93713 6.31429H8.83999C7.44571 6.31429 6.31428 7.44572 6.31428 8.84V9.93715C6.31428 9.99429 6.31428 10.0457 6.31428 10.1029V13.8914C6.31428 13.9486 6.31428 14 6.31428 14.0571V15.16C6.31428 16.4914 7.34285 17.5829 8.65142 17.68C8.71428 17.68 8.77713 17.6857 8.83999 17.6857C8.90285 17.6857 8.96571 17.6857 9.02856 17.68H9.93713C9.99428 17.68 10.0457 17.68 10.1028 17.68H10.7371V17.6743H14.5314C15.52 17.6743 16.3714 18.4286 16.4171 19.4C16.4286 19.6171 16.4343 19.8972 16.4343 20.2114C16.44 20.92 16.4343 21.7657 16.4171 22.2629H16.4114Z" fill="white"/>
<path d="M39.0859 6.41797H43.3602C44.2631 6.41797 44.9374 7.16083 44.9374 7.99511L44.9202 16.7151" fill="#FF4A18"/>
</g>
<defs>
<clipPath id="clip0_5536_15350">
<rect width="126.337" height="24" fill="white"/>
</clipPath>
</defs>
</svg>
