<svg width="78" height="46" viewBox="0 0 78 46" fill="none" xmlns="http://www.w3.org/2000/svg">
<rect y="0.950195" width="78" height="45" rx="12" fill="#505050"/>
<path d="M15.6446 16.501H15.5965C14.8177 16.5222 14.0577 16.7447 13.3905 17.1467C12.7234 17.5487 12.1718 18.1166 11.7896 18.7949L11.7785 18.8171C10.2173 21.501 11.2106 25.6082 12.9383 28.1092C13.7485 29.2922 14.6364 30.4493 15.8073 30.4493H15.8702C16.3604 30.4178 16.8136 30.2903 17.2224 30.0851L17.2021 30.0944C17.696 29.8467 18.2768 29.7007 18.8909 29.6951C19.4847 29.6988 20.047 29.843 20.5409 30.0944L20.5206 30.0851C20.9183 30.2922 21.3863 30.4178 21.8839 30.4289H21.9375C23.2382 30.405 24.055 29.2152 24.7768 28.1636L24.7825 28.1554C25.2986 27.4086 25.7259 26.5491 26.0255 25.6304L26.0459 25.5602V25.5417L26.0126 25.5269C25.2906 25.2033 24.6769 24.6791 24.2446 24.0168C23.8124 23.3545 23.5798 22.5819 23.5746 21.7912V21.7894C23.581 21.0911 23.7631 20.4056 24.1041 19.7961C24.4451 19.1866 24.9341 18.6725 25.5261 18.3014L25.5427 18.2922L25.576 18.27C25.1962 17.7192 24.6917 17.2658 24.1035 16.9465C23.5153 16.6273 22.86 16.4512 22.1909 16.4326H21.9893C21.1959 16.4728 20.4178 16.6654 19.6974 17.0001L19.7363 16.9835C19.3966 17.1472 19.0323 17.254 18.6579 17.2995L18.6412 17.3014C18.2385 17.259 17.8465 17.1457 17.4832 16.9668L17.5036 16.9761C16.925 16.7004 16.299 16.5379 15.6594 16.4973H15.6446V16.501Z" fill="#181818"/>
<path d="M22.1928 11.965C21.1353 12.0651 20.1569 12.5682 19.4607 13.3698L19.457 13.3753C19.1105 13.7634 18.8452 14.2168 18.6765 14.7088C18.5078 15.2008 18.4392 15.7215 18.4747 16.2404V16.2293C18.5376 16.2293 18.6042 16.2367 18.6782 16.2367C19.1711 16.21 19.6528 16.0798 20.092 15.8546C20.5312 15.6294 20.918 15.3143 21.2272 14.9299L21.2328 14.9225C21.9312 14.0962 22.2767 13.0287 22.1946 11.9502V11.9631L22.1928 11.965Z" fill="#181818"/>
<path fill-rule="evenodd" clip-rule="evenodd" d="M49.1496 19.8578C50.7774 19.8578 51.6764 20.6193 51.6764 22.0001V22.941L48.3727 23.1369C45.2743 23.3236 43.6373 24.5787 43.6373 26.7654C43.6427 27.2915 43.7592 27.8105 43.9792 28.2885C44.1992 28.7665 44.5177 29.1927 44.9139 29.5392C45.3101 29.8857 45.775 30.1448 46.2783 30.2994C46.7766 30.4524 47.3013 30.4997 47.8188 30.4382L47.8159 30.4382L47.8344 30.4363L47.8188 30.4382L47.9362 30.44C49.5436 30.44 50.9495 29.575 51.7116 28.2829L51.7227 28.2626H51.7782V30.2995H54.2291V21.8227C54.2291 19.3642 52.2665 17.7783 49.2292 17.7783C46.4286 17.7783 44.3457 19.3827 44.2625 21.5916H46.6487C46.7883 21.0483 47.1195 20.5736 47.5813 20.2547C47.696 20.1755 47.8168 20.1072 47.9422 20.0503C48.017 20.0163 48.0935 19.9863 48.1712 19.9605C48.4843 19.8564 48.8185 19.8189 49.1515 19.8541L49.1573 19.855L49.1626 19.8559C49.1588 19.8555 49.1553 19.8545 49.1515 19.8541L49.1496 19.8578ZM46.2159 26.7007C46.2159 27.7432 47.1241 28.4179 48.5262 28.4179L48.5133 28.416C48.9025 28.4562 49.2958 28.4164 49.6691 28.299C50.0423 28.1815 50.3875 27.989 50.6835 27.7333C50.9795 27.4775 51.2199 27.1639 51.39 26.8118C51.5602 26.4597 51.6564 26.0765 51.6727 25.6859V24.7228L48.7316 24.9077C47.0853 25.0056 46.2159 25.6249 46.2159 26.7007Z" fill="#181818"/>
<path d="M56.4877 32.8337V34.8855C56.7818 34.9262 57.1203 34.9502 57.4644 34.9502H57.494C60.0726 34.9502 61.2953 33.9483 62.3497 30.9816L67 17.9502H64.3104L61.1917 28.0167H61.1362L58.0175 17.9502H55.2502L59.7359 30.3587L59.4954 31.1129C59.4133 31.635 59.1378 32.1073 58.7236 32.4359C58.3093 32.7646 57.7866 32.9258 57.2591 32.8874H57.2665C57.0071 32.8765 56.748 32.8587 56.4896 32.8337H56.4877Z" fill="#181818"/>
<path fill-rule="evenodd" clip-rule="evenodd" d="M30.9737 13.2663V30.3014H33.6207V24.4752H37.2777C38.0313 24.5152 38.7849 24.3975 39.4902 24.1296C40.1956 23.8617 40.8372 23.4495 41.3739 22.9195C41.9106 22.3894 42.3306 21.7532 42.607 21.0515C42.8826 20.3516 43.0093 19.602 42.979 18.8506L42.9788 18.8559V18.8448L42.979 18.8506C43.011 18.107 42.8877 17.365 42.617 16.6717C42.3456 15.9767 41.932 15.346 41.4027 14.8198C40.8734 14.2937 40.2401 13.8838 39.5431 13.6163C38.8462 13.3487 38.1011 13.2295 37.3554 13.2663H30.9737ZM33.6133 22.2626H36.6544L36.6359 22.2589C37.108 22.326 37.5892 22.2867 38.0441 22.1438C38.499 22.001 38.9162 21.7582 39.2651 21.4334C39.614 21.1085 39.8857 20.7097 40.0603 20.2663C40.2343 19.8247 40.3075 19.3498 40.2748 18.8764C40.3085 18.4053 40.237 17.9326 40.0652 17.4926C39.8929 17.0509 39.6239 16.6532 39.278 16.3287C38.9321 16.0041 38.5181 15.7609 38.0661 15.6167C37.6141 15.4726 37.1355 15.4312 36.6655 15.4955H33.6133V22.2626Z" fill="#181818"/>
<path fill-rule="evenodd" clip-rule="evenodd" d="M47.8344 30.4363L47.8188 30.4382L47.8159 30.4382L47.8344 30.4363ZM42.979 18.8506L42.9788 18.8448V18.8559L42.979 18.8506Z" fill="#181818"/>
</svg>
