<svg width="107" height="46" viewBox="0 0 107 46" fill="none" xmlns="http://www.w3.org/2000/svg">
<g clip-path="url(#clip0_3781_3709)">
<path d="M14.5035 21.0266L11.3418 19.533H35.3086C36.2906 19.533 37.1779 18.9477 37.5636 18.0456L39.5834 13.319L16.3062 13.3164C12.389 13.3164 8.84784 15.6437 7.29818 19.2373L0.942371 34.1514C-0.434213 37.3825 1.93857 40.9691 5.45425 40.9691H26.1477C27.13 40.9691 28.0172 40.3837 28.4029 39.4816L30.4602 34.6682H8.68005L14.5035 21.0275V21.0266Z" fill="#505050"/>
<path d="M81.2612 13.3174C77.324 13.3174 73.7687 15.6692 72.2324 19.2909L71.2062 21.7103L70.4735 23.4347C69.1005 26.6651 71.4742 30.2472 74.9871 30.2472H76.7899H91.5044L89.6149 34.6692H67.304C66.3235 34.6692 65.438 35.2519 65.0515 36.1515L62.9783 40.9701H88.1724C92.101 40.9701 95.6499 38.6287 97.1917 35.0194L99.0383 30.6974C100.419 27.4662 98.0455 23.8762 94.529 23.8762H78.0276L79.239 21.0294L76.1555 19.5349H102.187C103.171 19.5349 104.059 18.9478 104.444 18.0439L106.454 13.3182H81.2621L81.2612 13.3174Z" fill="#505050"/>
<path d="M73.9437 7.01547C73.9216 7.01547 73.9032 6.99704 73.9032 6.9751C73.9051 6.8224 73.9094 6.28183 73.9103 6.18004C73.9103 6.03963 73.8119 5.92642 73.6889 5.92642C73.6178 5.92642 73.5544 5.96504 73.5132 6.02472C73.4921 6.05456 73.2401 6.42224 73.0846 6.64779C73.0757 6.66006 73.0626 6.66708 73.0476 6.66708H60.7646C60.7164 6.66708 60.6769 6.62847 60.676 6.58019L60.6514 6.24849C60.6505 6.19233 60.7014 6.14845 60.7566 6.15897L61.3848 6.21865C61.4394 6.22304 61.4885 6.18794 61.5016 6.13529L61.9594 4.28101C61.9691 4.23801 61.9453 4.19413 61.9042 4.17922L61.4789 4.02038C61.4544 4.01072 61.4357 3.99054 61.4296 3.96508C61.3523 3.64215 60.7235 1.48335 57.6916 1.0007C56.2166 0.766389 55.2505 1.3956 54.7348 1.89756C54.5055 2.12046 54.3166 2.38109 54.1689 2.66542L53.988 3.06383C53.9723 3.09455 53.9019 3.46838 53.9019 3.5026L53.9978 5.34285C53.9978 5.40604 54.0276 5.46483 54.0769 5.50345L54.7419 5.7904L54.3746 6.39856C54.3623 6.44331 54.3219 6.47401 54.2753 6.47401C54.2753 6.47401 53.4935 6.49419 53.1078 6.50999C52.3848 6.53897 50.7746 7.4209 49.5878 9.95704C48.4219 12.4476 48.2305 12.8626 48.2305 12.8626C48.206 12.91 48.1557 12.9399 48.1021 12.9372L47.0191 12.9407C46.9523 12.9407 46.8812 12.9943 46.853 13.0548L45.1689 17.8226C45.141 17.8832 45.1576 17.9744 45.2014 18.0253L46.3769 18.7598C46.4094 18.787 46.4235 18.83 46.4137 18.8704L45.7998 20.6825C45.7919 20.7229 45.7769 20.7624 45.7557 20.7984L44.9414 21.5154C44.9203 21.5338 44.901 21.5566 44.8896 21.582C44.8835 21.5961 44.8782 21.611 44.8737 21.6259L43.7528 24.4963C43.738 24.5472 43.6914 24.5816 43.6387 24.5816L43.0096 24.585C42.8514 24.585 42.7198 24.707 42.7057 24.8641L42.3296 29.1545C42.3228 29.23 42.313 29.3054 42.2998 29.3809L42.003 31.0834C41.9914 31.1229 41.9696 31.1579 41.9405 31.187L40.8935 31.9863C40.4137 32.4445 39.7707 33.2807 39.4562 33.8643L35.9687 41.2209C35.8844 41.377 35.8166 41.6466 35.821 41.8247L36.0687 42.2661C36.0723 42.4241 36.0089 43.1209 35.9362 43.2611L34.7678 45.3025C34.7414 45.3525 34.7396 45.4113 34.7626 45.4629L34.8205 45.5954L34.9953 45.9438L38.5416 45.9493C38.7614 45.9693 39.0046 45.6877 39.0116 45.3859L39.2041 42.955L39.1539 42.5891L45.9157 34.6541C46.0923 34.4391 46.3321 34.06 46.4523 33.8091L49.6746 26.7043C49.7126 26.6263 49.7801 26.5666 49.8628 26.5393L50.0664 26.4736C50.1903 26.4331 50.3257 26.4727 50.4091 26.5727C50.6912 26.9116 51.3544 28.0372 51.6776 28.5068C51.9446 28.8966 53.2703 30.8138 53.8491 31.4459C54.0091 31.6195 54.5019 31.817 54.7226 31.9513C54.7946 31.9952 54.8182 32.0882 54.7769 32.1611L52.846 35.5518L51.993 39.5561C51.9632 39.6493 51.9403 39.7456 51.9262 39.8422L51.1541 42.6231C51.1594 42.9743 50.8896 43.1586 50.8678 43.5727L50.5866 45.6052C50.583 45.6675 50.633 45.7202 50.6955 45.7202L55.4664 45.7466H55.4701C55.4762 45.7466 55.8064 45.742 56.0014 45.7341C56.0385 45.7325 56.1017 45.7263 56.143 45.7211C56.7789 45.6402 57.2139 45.5534 57.5098 45.4534C57.523 45.4491 57.5362 45.4445 57.5494 45.4393C57.7551 45.3666 57.8885 45.2856 57.9746 45.1963C58.1371 45.0268 58.3251 44.8188 58.3532 44.5513C58.3541 44.5406 58.3551 44.5311 58.356 44.5204C58.356 44.5143 58.356 44.5072 58.3566 44.5011C58.3566 44.4863 58.3566 44.4722 58.3566 44.4572C58.3566 44.4556 58.3566 44.4529 58.3566 44.4511C58.3566 44.4379 58.3551 44.4247 58.3532 44.4125C58.3471 44.3591 58.3348 44.3186 58.3207 44.2861C58.3207 44.2861 58.3207 44.2861 58.3207 44.2854C58.3207 44.2845 58.3198 44.2836 58.3189 44.2827C58.3146 44.2722 58.3094 44.2634 58.3039 44.2545C58.3005 44.2493 58.2978 44.2441 58.2935 44.2388C58.2662 44.2011 58.2398 44.187 58.2364 44.1852C58.2232 44.1775 58.2091 44.1704 58.1941 44.1652L55.9787 43.4972C55.8364 43.4534 55.7126 43.3656 55.6246 43.2463L55.0298 42.367C55.001 42.3056 55.0141 42.2318 55.0623 42.1845L56.2212 41.0427C56.2607 41.005 56.2914 40.9586 56.3116 40.9077L59.881 32.4927C60.0478 31.9584 59.9926 31.3572 59.881 30.7218C59.7982 30.2522 58.5957 28.2347 58.2812 27.6775C58.0044 27.1861 56.2791 24.17 55.8698 23.4556C55.8232 23.3749 55.7626 23.3029 55.6862 23.2503C55.6316 23.2125 55.578 23.1643 55.5341 23.1134C55.4903 23.0625 55.4587 23.0028 55.441 22.9379L55.3048 20.8431C55.2926 20.7975 55.3241 20.7519 55.3716 20.7484L55.9928 20.6966C56.0516 20.6913 56.1044 20.6571 56.1316 20.6053L58.2821 16.5659C58.3119 16.5106 58.3103 16.4431 58.2778 16.3895L57.8376 15.8446C57.8078 15.7946 57.8069 15.7314 57.8357 15.6805L58.4946 14.9688C58.5219 14.9196 58.5835 14.9029 58.6326 14.9301L60.3844 15.9174C60.4905 15.9771 60.611 16.0122 60.733 16.0122C61.2189 16.0087 62.0191 15.7217 62.4355 15.4672C62.5453 15.3996 62.6357 15.304 62.6955 15.1899L63.5548 13.1829C63.5662 13.1575 63.6039 13.161 63.6091 13.1882L63.8489 14.3045C63.8648 14.3747 63.9264 14.4142 63.9967 14.3984L66.5266 13.8359C66.5935 13.8209 66.6346 13.7551 66.6205 13.6884L66.0241 11.1689C66.0162 11.1347 66.0223 11.0987 66.0416 11.0689L66.2878 10.6872C66.3185 10.6398 66.3412 10.588 66.3553 10.5345L66.6532 9.17515C66.661 9.14004 66.6919 9.11458 66.7278 9.11458L73.7266 9.12335C73.8251 9.12335 73.9014 9.0479 73.9014 8.94874V7.76051C73.9014 7.73858 73.9198 7.72015 73.9419 7.72015H76.6405C76.688 7.72015 76.7276 7.68154 76.7276 7.63326V7.09797C76.7276 7.05058 76.6889 7.01108 76.6405 7.01108H73.941L73.9437 7.01547Z" fill="#505050"/>
</g>
<defs>
<clipPath id="clip0_3781_3709">
<rect width="105.909" height="45" fill="white" transform="translate(0.54541 0.950195)"/>
</clipPath>
</defs>
</svg>
