<svg width="46" height="46" viewBox="0 0 46 46" fill="none" xmlns="http://www.w3.org/2000/svg">
<g clip-path="url(#clip0_3781_3701)">
<path d="M18.9522 45.2123L18.3035 44.661L17.426 44.586C16.331 44.496 15.821 44.3966 15.2022 44.151L14.7185 43.9579L14.1972 44.1641C13.7547 44.3423 12.671 44.5035 11.8478 44.5166C11.8028 44.5166 11.7278 44.4116 11.681 44.2823C11.6285 44.151 11.5366 44.0254 11.4653 44.001C11.3997 43.9785 10.9085 44.0873 10.3647 44.2504L9.38033 44.5466L9.02596 44.376C8.57971 44.1585 8.39221 44.1623 7.64596 44.3891C7.07783 44.5654 7.00658 44.5691 6.55096 44.4716C5.87033 44.3291 5.30221 44.3385 4.02158 44.5204C2.62658 44.7191 2.59658 44.7191 2.18596 44.4379C1.96928 44.2695 1.69855 44.1862 1.42471 44.2035C1.04408 44.2035 1.00283 44.1866 0.95971 44.0085C0.942119 43.8314 0.969863 43.6526 1.04033 43.4891C1.25033 42.9679 1.33283 41.7041 1.35533 38.6835L1.37783 35.8616L1.77346 35.8898L2.16346 35.9179L2.22346 34.2866C2.25346 33.3904 2.28346 32.0948 2.28908 31.4104L2.29846 30.1729L2.08846 30.0229C1.51658 29.6048 1.54283 29.6648 1.30471 28.3016C1.17382 27.5381 1.08245 26.7683 1.03096 25.9954C0.984085 24.9979 0.987835 24.9698 1.17158 24.7616L1.35908 24.5479L1.82408 24.9473C2.08283 25.1666 2.30221 25.311 2.32283 25.266C2.39033 25.0541 2.17846 22.5266 2.06971 22.2079C1.99821 22.0231 1.95644 21.8282 1.94596 21.6304C1.94596 21.5029 1.81846 21.1579 1.65908 20.8579L1.37596 20.316L1.47158 19.3541C1.59721 18.0791 1.43596 17.1416 0.901585 16.0129L0.66721 15.5048L0.815335 14.2429L0.972835 12.9791L0.807835 12.3248L0.63721 11.6685L0.834085 10.9354L1.02346 10.1985L0.807835 9.48602L0.58471 8.77539L0.852835 8.02539C1.11721 7.29602 1.12283 7.25664 1.11721 6.06789C1.11346 4.72914 0.972835 3.85727 0.695335 3.50852C0.45721 3.20477 0.496585 2.99664 0.85096 2.67227C1.01971 2.51289 1.16033 2.31039 1.16033 2.22602C1.16033 2.09664 1.21846 2.07227 1.57471 2.06477C1.79971 2.06477 2.49346 2.00477 3.11783 1.93352L4.25596 1.79664L5.74471 2.01602C7.22971 2.23164 7.23159 2.23164 9.26783 2.14539L11.3078 2.05727L11.7897 2.34789L12.2772 2.63477L14.2553 2.60664L16.2353 2.57852L16.9028 2.33664C17.2666 2.20352 17.8497 1.97102 18.1966 1.81352C18.642 1.6236 19.0992 1.46264 19.5653 1.33164L20.3116 1.13477L21.2753 1.43852L22.2391 1.74602L23.0716 1.46664L23.9003 1.18727L24.7947 1.48352C25.2878 1.64477 26.2028 2.04227 26.8366 2.36852L27.9822 2.95352L29.1822 2.91977C30.0916 2.89164 30.4028 2.85789 30.4516 2.77352C30.5528 2.52541 30.6361 2.27038 30.701 2.01039L30.8791 1.35227L32.0135 1.38977C32.8628 1.41977 33.6241 1.50977 35.0153 1.75352L36.881 2.08352L37.3666 1.88852C37.6291 1.78164 38.1316 1.65227 38.4822 1.60727C39.0691 1.52852 39.1703 1.53789 39.971 1.74039C40.7172 1.92789 40.9741 1.95602 41.9997 1.95602C42.6466 1.95602 43.3178 1.92789 43.496 1.89789C43.8016 1.84539 43.8522 1.86602 44.4728 2.31414C44.8347 2.57289 45.1553 2.82602 45.1835 2.88039C45.2153 2.93102 45.2828 3.20477 45.3278 3.48789L45.4141 4.00914L45.0222 4.75164C44.8028 5.16039 44.621 5.52977 44.621 5.57289C44.621 5.61602 44.711 5.68727 44.816 5.73789C44.9786 5.84218 45.1163 5.98112 45.2191 6.14477L45.4272 6.46352L45.3803 10.7479C45.3522 13.1048 45.3053 15.2066 45.2791 15.4148L45.2285 15.7973L44.5816 15.756L43.9366 15.7054L43.8822 16.0635C43.8453 16.3269 43.8271 16.5926 43.8278 16.8585C43.8278 17.2185 43.7716 17.4079 43.5278 17.8823L43.2222 18.4654L43.391 18.7073C43.4847 18.8423 43.8053 19.2041 44.1035 19.5135L44.651 20.0854L44.4841 20.691L44.3153 21.3004L44.516 22.5904C44.7485 24.141 44.7316 24.531 44.351 25.8735C44.2409 26.2393 44.1495 26.6104 44.0772 26.9854C44.0772 27.126 44.1803 27.1616 44.8778 27.2573C45.1872 27.2966 45.2528 27.3341 45.2528 27.4748C45.2528 27.5666 45.3016 29.5448 45.3653 31.8716C45.566 39.5123 45.5847 41.1791 45.491 42.9116C45.4682 43.4698 45.4263 44.027 45.3653 44.5823C45.3466 44.5991 44.726 44.3498 43.9816 44.0291L42.626 43.4516L42.041 43.7048C41.4372 43.9654 41.3772 44.0329 41.2985 44.5335C41.2441 44.8654 41.2853 44.8504 39.7985 45.1541L38.9228 45.3341L38.0716 45.0491C37.2841 44.7848 37.1772 44.766 36.5566 44.8073C36.0935 44.8354 35.7747 44.8129 35.5028 44.7323C35.1128 44.6216 35.1128 44.6216 34.4585 44.9235L33.7985 45.2216H31.361C28.7941 45.2179 28.2653 45.2591 26.4972 45.5873C25.2747 45.8123 24.8453 45.8029 22.706 45.546L21.5772 45.4073L20.7878 45.5873C20.3491 45.6885 19.9066 45.7673 19.8016 45.7635C19.6741 45.7635 19.3816 45.5741 18.956 45.2123H18.9522ZM14.2028 38.2954C16.0872 37.5848 17.6416 36.9923 17.651 36.9791C17.6753 36.9529 10.3066 29.8054 9.32784 28.9035C9.05596 28.6523 8.81221 28.4591 8.79346 28.4779C8.77659 28.4985 8.17658 30.0998 7.46408 32.031C6.67658 34.1648 6.19096 35.5916 6.23033 35.6516C6.27721 35.7304 10.7153 39.5723 10.766 39.5835C10.7716 39.5835 12.3185 39.0041 14.2028 38.2954ZM39.5378 34.3785C40.5185 32.0066 41.2928 30.0473 41.2666 30.0191C41.231 29.9798 22.8353 17.5579 9.95784 8.87289L8.92471 8.17727L7.23721 8.94039C6.30533 9.35664 5.55721 9.73727 5.57033 9.77852C5.58908 9.83102 11.816 16.3598 19.4153 24.291L33.2303 38.7135L35.4916 38.6985L37.7585 38.6835L39.5378 34.3785ZM36.9841 14.0216C37.3085 12.2179 37.5766 10.6823 37.5766 10.6073C37.5766 10.5266 37.1022 10.1404 36.3091 9.58352C35.6116 9.09227 34.9947 8.66477 34.9403 8.62914C34.841 8.56727 27.6241 10.5191 27.6335 10.6035C27.641 10.6598 36.341 17.3516 36.371 17.3198C36.386 17.3085 36.6597 15.8216 36.9841 14.0216Z" fill="#505050"/>
</g>
<defs>
<clipPath id="clip0_3781_3701">
<rect width="45" height="45" fill="white" transform="translate(0.54541 0.950195)"/>
</clipPath>
</defs>
</svg>
