<svg width="139" height="197" viewBox="0 0 139 197" fill="none" xmlns="http://www.w3.org/2000/svg">
<g clip-path="url(#clip0_3783_24327)">
<path d="M69.3633 0.503906C69.3359 0.503906 69.3095 0.514633 69.2898 0.533768C63.9845 5.69644 60.7527 12.4431 60.7527 19.8514C61.0668 36.1469 63.403 52.4229 63.6086 68.6842C64.0313 83.8711 58.7078 98.1303 52.2305 112.048C50.1808 115.696 47.9768 119.269 45.76 122.847C45.5453 123.194 45.1418 123.375 44.7401 123.306L38.5504 122.239C32.3644 121.184 28.3432 116.042 29.5827 110.754C30.6623 106.129 35.426 102.891 40.7381 102.891L41.9832 103.006C42.6252 103.065 43.1543 102.51 43.0649 101.871L37.6594 63.2735C35.8373 45.5472 25.1331 29.9696 9.38538 19.8612C7.10886 18.3994 4.71522 17.0413 2.23503 15.8128C1.57864 15.4877 0.817505 15.9705 0.817505 16.703V155.598C0.817505 156.15 1.26522 156.598 1.8175 156.598H38.2116C38.6826 156.598 39.0887 156.927 39.196 157.385C42.2157 170.29 50.647 181.562 62.4034 189.316C64.7943 190.725 66.8636 192.512 68.4833 194.579C68.9247 195.142 69.8068 195.141 70.2477 194.578C71.864 192.511 73.9338 190.724 76.329 189.316C88.0855 181.543 96.5169 170.294 99.5365 157.386C99.6438 156.927 100.05 156.598 100.521 156.598H136.915C137.467 156.598 137.915 156.15 137.915 155.598V16.703C137.915 15.9705 137.154 15.4877 136.497 15.8128C134.017 17.0413 131.624 18.3994 129.347 19.8612C113.582 29.9842 102.901 45.5472 101.073 63.2735L95.6676 101.871C95.5782 102.51 96.1073 103.065 96.7493 103.006L97.9943 102.891C103.306 102.911 108.07 106.124 109.15 110.754C110.383 116.042 106.362 121.179 100.182 122.239L93.992 123.306C93.5905 123.375 93.1871 123.194 92.9723 122.848C90.7551 119.274 88.5462 115.7 86.502 112.048C80.0189 98.14 74.6954 83.8809 75.1181 68.6842C75.3237 52.374 77.6599 36.1127 77.9741 19.8514C77.9741 12.4432 74.7422 5.71592 69.437 0.533909C69.4173 0.51469 69.3908 0.503906 69.3633 0.503906ZM12.1846 35.521C12.195 35.5185 12.206 35.5216 12.2135 35.5292C19.598 42.9448 24.557 52.1745 26.0242 62.3408L30.4883 94.4469C30.5505 94.8944 30.3038 95.3262 29.8938 95.516C24.6326 97.9515 20.6167 102.098 18.8635 107.094C18.7177 107.51 18.3319 107.799 17.8914 107.799H13.1614C12.6091 107.799 12.1614 107.351 12.1614 106.799V35.5507C12.1614 35.5366 12.171 35.5244 12.1846 35.521ZM126.419 35.5093C126.431 35.5139 126.44 35.5258 126.44 35.5392V106.789C126.44 107.342 125.992 107.789 125.44 107.789H120.711C120.27 107.789 119.884 107.499 119.738 107.083C117.993 102.092 113.968 97.9457 108.707 95.5064C108.297 95.3165 108.051 94.8849 108.113 94.4377L112.577 62.331C114.055 52.1755 119.013 42.9369 126.385 35.5168C126.394 35.508 126.407 35.5051 126.419 35.5093ZM68.3427 104.208C68.6831 103.333 69.9579 103.333 70.2982 104.208C73.0908 111.391 76.6993 118.267 81.0478 124.713C81.437 125.29 81.143 126.083 80.4788 126.29C76.4333 127.554 72.869 129.641 70.065 132.351C69.6516 132.751 68.9894 132.751 68.576 132.351C65.7709 129.641 62.2051 127.555 58.1577 126.286C57.4948 126.079 57.2018 125.287 57.59 124.711C61.9399 118.254 65.5494 111.39 68.3427 104.208ZM12.1987 117.576C12.2005 117.576 12.2023 117.575 12.2041 117.575H17.9306C18.3714 117.575 18.7575 117.865 18.9031 118.281C21.147 124.689 27.1436 129.707 34.6663 131.503L39.0489 132.356C39.6375 132.471 39.9926 133.074 39.8218 133.649C38.6574 137.567 37.9848 141.648 37.893 145.88C37.881 146.432 37.4344 146.88 36.8821 146.88H13.1785C12.6262 146.88 12.1785 146.432 12.1785 145.88V117.601C12.1785 117.589 12.1869 117.579 12.1987 117.576ZM119.983 117.575C119.984 117.575 119.986 117.575 119.988 117.575H125.457C126.009 117.575 126.457 118.023 126.457 118.575V145.875C126.457 146.427 126.009 146.875 125.457 146.875H101.753C101.201 146.875 100.754 146.427 100.742 145.875C100.65 141.664 99.9773 137.567 98.813 133.644C98.6425 133.069 98.9977 132.466 99.5861 132.352L103.969 131.498C111.787 129.639 117.934 124.32 119.956 117.591C119.96 117.579 119.971 117.572 119.983 117.575ZM51.0767 135.588C51.2185 135.136 51.6671 134.851 52.1347 134.931C58.2948 135.984 63.0304 140.415 63.5498 145.871C63.6022 146.421 63.1495 146.87 62.5972 146.87H50.3174C49.7651 146.87 49.316 146.422 49.3312 145.87C49.4291 142.321 50.0452 138.881 51.0767 135.588ZM86.4892 134.931C86.9568 134.851 87.4054 135.136 87.5472 135.588C88.5789 138.881 89.195 142.314 89.2928 145.87C89.308 146.422 88.8588 146.87 88.3065 146.87H76.0267C75.4744 146.87 75.0218 146.421 75.074 145.871C75.5927 140.408 80.3286 135.983 86.4892 134.931ZM50.9885 157.897C50.7949 157.268 51.2738 156.642 51.9325 156.642H62.6086C63.1609 156.642 63.6086 157.089 63.6086 157.642V174.959C63.6086 175.824 62.592 176.272 61.9758 175.665C56.853 170.616 53.0379 164.565 50.9885 157.897ZM75.0324 157.642C75.0324 157.089 75.4802 156.642 76.0324 156.642H86.7131C87.3704 156.642 87.8491 157.265 87.6579 157.894C85.6288 164.566 81.804 170.627 76.6636 175.673C76.0469 176.278 75.0324 175.83 75.0324 174.965V157.642Z" fill="#3C3C3C"/>
</g>
<defs>
<clipPath id="clip0_3783_24327">
<rect width="138.228" height="196.308" fill="white" transform="translate(0.106445 0.578125)"/>
</clipPath>
</defs>
</svg>
