<svg width="82" height="46" viewBox="0 0 82 46" fill="none" xmlns="http://www.w3.org/2000/svg">
<rect y="0.950195" width="82" height="45" rx="12" fill="#505050"/>
<path d="M20.9082 11.9509C19.0714 11.9502 17.2706 12.4427 15.7073 13.3735C14.1439 14.3042 12.8796 15.6364 12.0559 17.2211C11.3616 18.5534 11 20.0239 11 21.5152C11 23.0065 11.3616 24.4771 12.0559 25.8094C12.8796 27.394 14.1439 28.7262 15.7073 29.657C17.2706 30.5877 19.0714 31.0803 20.9082 31.0796C23.5832 31.0796 25.8332 30.2302 27.4756 28.7702C29.3456 27.1052 30.4256 24.6438 30.4256 21.7336C30.4218 21.0818 30.3633 20.4314 30.2506 19.7887H20.9107V23.4711H26.2606C26.1511 24.0591 25.9197 24.6197 25.5803 25.1193C25.2409 25.619 24.8006 26.0474 24.2857 26.3788C23.3957 26.9604 22.2507 27.2934 20.9107 27.2934C18.3258 27.2934 16.1333 25.6115 15.3483 23.3456C14.9346 22.158 14.9346 20.8725 15.3483 19.6849C16.1333 17.4166 18.3258 15.7371 20.9107 15.7371C22.3233 15.7142 23.6884 16.2292 24.7107 17.1704L27.5406 14.4436C25.7486 12.8151 23.3693 11.9214 20.9082 11.9509ZM37.1605 13.2781V29.9285H39.3755V23.1839H43.0379C44.5445 23.1839 45.8129 22.7109 46.8428 21.765C47.3557 21.3215 47.7631 20.7761 48.0371 20.1663C48.3111 19.5565 48.4453 18.8967 48.4303 18.2322C48.4407 17.5711 48.3045 16.9156 48.0307 16.3096C47.7569 15.7036 47.3518 15.1611 46.8428 14.7187C46.3384 14.2481 45.7425 13.8784 45.0896 13.6307C44.4366 13.3831 43.7393 13.2624 43.0379 13.2757L37.1605 13.2781ZM43.2279 15.3292C43.6144 15.3363 43.9954 15.4179 44.3488 15.5691C44.7021 15.7204 45.0205 15.9383 45.2854 16.21C45.567 16.4745 45.7909 16.7908 45.9438 17.1402C46.0967 17.4896 46.1755 17.865 46.1755 18.2443C46.1755 18.6236 46.0967 18.999 45.9438 19.3484C45.7909 19.6978 45.567 20.0141 45.2854 20.2785C45.0023 20.5617 44.661 20.7846 44.2835 20.9329C43.9059 21.0813 43.5004 21.1518 43.0929 21.14H39.3755V15.3292H43.2279ZM53.5378 18.1646C51.4345 18.1646 49.8453 18.9087 48.7703 20.3968L50.7228 21.5816C51.4428 20.5745 52.4219 20.071 53.6603 20.071C54.45 20.0604 55.2146 20.3389 55.8002 20.8504C56.0901 21.0798 56.3228 21.3691 56.4812 21.697C56.6396 22.0249 56.7196 22.383 56.7152 22.7447V23.2322C55.8652 22.7656 54.7819 22.5332 53.4653 22.5348C51.9219 22.5348 50.6895 22.8839 49.7678 23.5821C48.8428 24.277 48.3812 25.2141 48.3828 26.3933C48.3735 26.9232 48.4864 27.4484 48.7134 27.9309C48.9404 28.4133 49.2758 28.841 49.6953 29.1829C50.5703 29.9277 51.6578 30.3001 52.9578 30.3001C54.4827 30.3001 55.7036 29.6486 56.6202 28.3455H56.7152V29.9261H58.8352V22.9064C58.8352 21.4344 58.3619 20.2761 57.4152 19.4315C56.4652 18.5869 55.1727 18.1646 53.5378 18.1646ZM59.1952 18.5363L64.0601 29.207L61.3151 34.9502H63.6026L71 18.5338H68.5875L65.1676 26.7167H65.1176L61.6026 18.5363H59.1952ZM53.8302 24.2505C55.0652 24.2505 56.0286 24.5159 56.7202 25.0468C56.7202 25.9445 56.3535 26.7271 55.6202 27.3948C55.2939 27.7122 54.9056 27.964 54.4778 28.1355C54.0499 28.307 53.591 28.3948 53.1278 28.3938C52.503 28.4055 51.8933 28.2076 51.4028 27.834C51.1748 27.6743 50.9894 27.4645 50.8621 27.2219C50.7347 26.9794 50.669 26.7111 50.6703 26.4392C50.6703 25.823 50.9728 25.3026 51.5778 24.8779C52.1778 24.4596 52.9303 24.2505 53.8302 24.2505Z" fill="#181818"/>
</svg>
