<svg width="94" height="46" viewBox="0 0 94 46" fill="none" xmlns="http://www.w3.org/2000/svg">
<g clip-path="url(#clip0_3781_3684)">
<path d="M14.4061 45.7733V40.4794C14.4061 38.4495 13.1791 37.1263 11.0761 37.1263C10.0248 37.1263 8.88566 37.4793 8.09697 38.6264C7.4839 37.6557 6.60781 37.1263 5.29347 37.1263C4.41697 37.1263 3.54128 37.3908 2.84 38.3615V37.3028H1V45.7733H2.84V41.0967C2.84 39.5971 3.62869 38.8909 4.85562 38.8909C6.08175 38.8909 6.69562 39.6851 6.69562 41.0967V45.7733H8.53562V41.0967C8.53562 39.5971 9.41131 38.8909 10.5504 38.8909C11.7774 38.8909 12.3904 39.6851 12.3904 41.0967V45.7733H14.4061ZM41.6552 37.3028H38.6765V34.744H36.8365V37.3028H35.1717V38.9789H36.8361V42.8617C36.8361 44.803 37.6248 45.9498 39.7278 45.9498C40.5165 45.9498 41.3922 45.6853 42.0061 45.3324L41.48 43.7439C40.9543 44.0968 40.3413 44.1853 39.903 44.1853C39.0269 44.1853 38.6765 43.6559 38.6765 42.7732V38.9789H41.6552V37.3028ZM57.2517 37.1259C56.2004 37.1259 55.4995 37.6557 55.0613 38.3615V37.3028H53.2213V45.7733H55.0613V41.0087C55.0613 39.5971 55.6743 38.8029 56.8135 38.8029C57.1639 38.8029 57.6022 38.8913 57.9526 38.9793L58.4782 37.2148C58.1278 37.1263 57.6021 37.1263 57.2517 37.1263M33.6821 38.009C32.8057 37.3912 31.5791 37.1267 30.2648 37.1267C28.1622 37.1267 26.7604 38.1855 26.7604 39.862C26.7604 41.274 27.8117 42.0678 29.6517 42.3327L30.5278 42.4211C31.4917 42.5972 32.0174 42.8621 32.0174 43.3034C32.0174 43.9208 31.3165 44.3621 30.0896 44.3621C28.8626 44.3621 27.8991 43.9208 27.2857 43.4799L26.4096 44.8915C27.3735 45.5973 28.6878 45.9502 30.0018 45.9502C32.4552 45.9502 33.8574 44.8034 33.8574 43.215C33.8574 41.7149 32.7182 40.9207 30.9657 40.6562L30.0896 40.5678C29.3009 40.4794 28.6878 40.3033 28.6878 39.7739C28.6878 39.1562 29.3009 38.8033 30.2648 38.8033C31.3165 38.8033 32.3678 39.2442 32.8935 39.5091L33.6821 38.009ZM82.5739 37.1267C81.5222 37.1267 80.8213 37.6561 80.383 38.3619V37.3032H78.543V45.7737H80.383V41.0091C80.383 39.5975 80.9965 38.8033 82.1352 38.8033C82.4861 38.8033 82.9243 38.8917 83.2747 38.9797L83.8004 37.2152C83.45 37.1267 82.9243 37.1267 82.5739 37.1267ZM59.0917 41.5385C59.0917 44.0972 60.8439 45.9502 63.5604 45.9502C64.7869 45.9502 65.663 45.6857 66.5391 44.9799L65.663 43.4799C64.9622 44.0092 64.2613 44.2737 63.4726 44.2737C61.983 44.2737 60.9317 43.215 60.9317 41.5385C60.9317 39.9504 61.983 38.8913 63.4726 38.8033C64.2613 38.8033 64.9622 39.0677 65.663 39.5975L66.5391 38.0974C65.663 37.3912 64.7869 37.1267 63.5604 37.1267C60.8439 37.1267 59.0917 38.9797 59.0917 41.5385ZM76.09 41.5385V37.3032H74.25V38.3619C73.6365 37.5681 72.7604 37.1267 71.6213 37.1267C69.2556 37.1267 67.4156 38.9797 67.4156 41.5385C67.4156 44.0972 69.2556 45.9502 71.6213 45.9502C72.8478 45.9502 73.7243 45.5093 74.25 44.715V45.7737H76.09V41.5385ZM69.343 41.5385C69.343 40.0384 70.3069 38.8033 71.8839 38.8033C73.3735 38.8033 74.4252 39.9504 74.4252 41.5385C74.4252 43.0385 73.3735 44.2737 71.8839 44.2737C70.3069 44.1853 69.343 43.0385 69.343 41.5385ZM47.3508 37.1267C44.8974 37.1267 43.1448 38.8913 43.1448 41.5385C43.1448 44.1857 44.897 45.9502 47.4382 45.9502C48.6648 45.9502 49.8917 45.5973 50.8556 44.8035L49.9791 43.4799C49.2782 44.0092 48.4022 44.3621 47.5261 44.3621C46.3869 44.3621 45.2478 43.8328 44.9848 42.3323H51.2061V41.6269C51.2939 38.8913 49.7169 37.1267 47.3508 37.1267ZM47.3504 38.7148C48.4892 38.7148 49.2783 39.421 49.4531 40.7446H45.0722C45.2474 39.5975 46.0361 38.7148 47.3504 38.7148ZM93 41.5385V33.9502H91.16V38.3619C90.5465 37.5681 89.6704 37.1267 88.5313 37.1267C86.1657 37.1267 84.3257 38.9797 84.3257 41.5385C84.3257 44.0972 86.1657 45.9502 88.5313 45.9502C89.7582 45.9502 90.6343 45.5093 91.16 44.715V45.7737H93V41.5385ZM86.2535 41.5385C86.2535 40.0384 87.217 38.8033 88.7943 38.8033C90.2839 38.8033 91.3352 39.9504 91.3352 41.5385C91.3352 43.0385 90.2839 44.2737 88.7943 44.2737C87.217 44.1853 86.2535 43.0385 86.2535 41.5385ZM24.7444 41.5385V37.3032H22.9044V38.3619C22.2909 37.5681 21.4148 37.1267 20.2757 37.1267C17.91 37.1267 16.07 38.9797 16.07 41.5385C16.07 44.0972 17.91 45.9502 20.2757 45.9502C21.5026 45.9502 22.3787 45.5093 22.9044 44.715V45.7737H24.7444V41.5385ZM17.91 41.5385C17.91 40.0384 18.8739 38.8033 20.4509 38.8033C21.9405 38.8033 22.9922 39.9504 22.9922 41.5385C22.9922 43.0385 21.9405 44.2737 20.4509 44.2737C18.8739 44.1853 17.91 43.0385 17.91 41.5385Z" fill="#505050"/>
<path d="M40 3.9502H54V27.9502H40V3.9502Z" fill="#3C3C3C"/>
<path d="M41.3507 15.9502C41.3507 11.1586 43.5774 6.90851 47 4.15845C44.4847 2.15849 41.3095 0.950195 37.8456 0.950195C29.6391 0.950195 23 7.65843 23 15.9502C23 24.242 29.6391 30.9502 37.8454 30.9502C41.3093 30.9502 44.4845 29.7419 47 27.7418C43.5774 25.0334 41.3507 20.7418 41.3507 15.9502Z" fill="#505050"/>
<path d="M70.9998 15.9502C70.9998 24.2418 64.3608 30.9502 56.1545 30.9502C52.6906 30.9502 49.5155 29.7419 47 27.7418C50.4639 24.9919 52.6495 20.7418 52.6495 15.9502C52.6495 11.1586 50.4226 6.90851 47 4.15845C49.5153 2.15849 52.6906 0.950195 56.1545 0.950195C64.3608 0.950195 70.9998 7.70019 70.9998 15.9502Z" fill="#3C3C3C"/>
</g>
<defs>
<clipPath id="clip0_3781_3684">
<rect width="94" height="45" fill="white" transform="translate(0 0.950195)"/>
</clipPath>
</defs>
</svg>
