<svg width="93" height="46" viewBox="0 0 93 46" fill="none" xmlns="http://www.w3.org/2000/svg">
<rect y="0.950195" width="93" height="45" rx="12" fill="#505050"/>
<path d="M22.9576 14.2176C22.8501 13.6272 22.5176 13.1017 22.0303 12.752C21.5431 12.4023 20.9391 12.2557 20.346 12.3432L20.3593 12.341H11.0688L11 12.7918C18.1362 14.6062 22.8303 18.5155 24.9545 24.4074L22.9576 14.2176Z" fill="#181818"/>
<path d="M17.4792 16.8891L22.161 34.5843H28.2275L37.2694 12.3432H31.1764L25.5537 27.5422L24.9635 24.4531L24.9557 24.4137L24.9552 24.4109L24.9545 24.4074C24.3036 22.734 23.3057 21.2173 22.0279 19.956L22.0257 19.9538C20.7596 18.6527 19.2452 17.6196 17.5723 16.9158L17.4836 16.8825L17.4792 16.8891Z" fill="#181818"/>
<path d="M39.5993 12.3432L35.9913 34.6198H41.7471L45.3528 12.3432H39.5993Z" fill="#181818"/>
<path fill-rule="evenodd" clip-rule="evenodd" d="M68.609 31.2886H75.9646C76.083 31.7965 76.3145 32.9068 76.6591 34.6198H82L77.3536 12.3432H72.9159C72.2814 12.287 71.6458 12.437 71.1034 12.7711C70.5609 13.1051 70.1406 13.6054 69.9048 14.1976L69.8982 14.2176L61.3776 34.6198H67.413L68.6245 31.2909L68.609 31.2886ZM70.2377 26.7072H75.0305L75.0283 26.6983L73.7124 20.2803L73.2953 18.3726C73.2287 18.6036 73.1311 18.9056 72.9847 19.2743L72.6296 20.1759L72.5276 20.489C71.3249 23.7787 70.5616 25.8515 70.2377 26.7072Z" fill="#181818"/>
<path fill-rule="evenodd" clip-rule="evenodd" d="M24.9701 24.4509L24.9624 24.4303L24.9557 24.4137L24.9552 24.4109C24.9575 24.4174 24.96 24.4239 24.9624 24.4303C24.965 24.4372 24.9677 24.444 24.9701 24.4509Z" fill="#181818"/>
<path d="M46.1428 28.7547L45.3462 33.7515C47.3774 34.6071 49.5703 35.0096 51.7726 34.9313C54.356 35.08 56.9139 34.3496 59.0301 32.8587C59.8951 32.2224 60.5608 31.4157 61.0457 30.4571C61.5306 29.4984 61.7834 28.439 61.7837 27.3645V27.3312C61.7837 24.8884 60.1506 22.8608 56.931 21.2929C56.0651 20.8747 55.2531 20.3947 54.4703 19.8361C54.2562 19.6937 54.0611 19.4928 53.9321 19.2701C53.7999 19.0417 53.7235 18.7851 53.7092 18.5214C53.7258 18.2464 53.8116 17.9756 53.9586 17.7426C54.1056 17.5096 54.318 17.3132 54.559 17.1801C55.3038 16.75 56.4947 16.5491 57.3526 16.6071C58.7816 16.6071 60.0752 16.8914 61.2978 17.4443L61.817 17.7219L62.6136 12.9006C61.0026 12.2754 59.2155 11.9553 57.4877 11.9613C54.9876 11.8517 52.5294 12.5576 50.4896 14.0085C49.6418 14.6074 48.95 15.4016 48.4724 16.3236C47.9947 17.2457 47.7452 18.269 47.7448 19.3076C47.7226 21.6572 49.4134 23.698 52.7728 25.3592C53.6604 25.7478 54.4259 26.2231 55.1115 26.7938C55.3094 26.9604 55.4548 27.1532 55.5683 27.3858C55.6818 27.6183 55.7454 27.8721 55.755 28.1307C55.755 28.8391 55.3334 29.4565 54.7254 29.7297L54.7143 29.7341C54.0487 30.085 53.2587 30.2893 52.42 30.2893H52.3224H52.3179H52.1559C50.2544 30.2893 48.5303 29.9007 46.9149 29.1456L46.1539 28.7636L46.1428 28.7547Z" fill="#181818"/>
</svg>
