<svg width="133" height="46" viewBox="0 0 133 46" fill="none" xmlns="http://www.w3.org/2000/svg">
<g clip-path="url(#clip0_3781_24218)">
<path d="M56.0826 19.7915H59.33V22.4621H55.1419C53.3661 22.4621 51.9639 21.0175 51.9639 19.2312V3.26941H55.107V7.2095H58.5462V9.88004H55.107V18.8196C55.107 19.3625 55.5511 19.7915 56.0826 19.7915ZM21.1775 16.8234C21.1775 18.8372 19.9411 20.2031 18.0343 20.2031C16.1276 20.2031 14.8565 18.8372 14.8565 16.8234V7.20076H11.7133V16.8147C11.7133 18.8285 10.4509 20.1944 8.53541 20.1944C6.61998 20.1944 5.39233 18.8285 5.39233 16.8147V7.20076H5.36623H2.2144H0.0551758V9.8713H2.2144V16.7271C2.2144 20.3607 4.5304 22.7423 8.074 22.7423C10.477 22.7423 12.3577 21.6567 13.2893 19.8617C14.2122 21.6567 16.0929 22.7423 18.5045 22.7423C22.0484 22.7423 24.3639 20.3607 24.3639 16.7271V7.20076H21.1861V16.8234H21.1775ZM46.7576 1.22056C45.5558 1.22056 44.755 1.96479 44.755 3.08553C44.755 4.17123 45.5558 4.94176 46.7576 4.94176C47.933 4.94176 48.76 4.16249 48.76 3.08553C48.7688 1.96479 47.933 1.22056 46.7576 1.22056ZM35.6217 6.92933C33.5235 6.92933 31.8258 7.85743 30.8419 9.50354V1.00163H27.6988V22.4621H30.8419V13.5312C30.8419 11.0796 32.3479 9.46854 34.6903 9.46854C36.9714 9.46854 38.4513 11.0796 38.4513 13.5312V22.4621H41.6293V13.1022C41.638 9.40723 39.1046 6.92933 35.6217 6.92933ZM45.1903 22.4621H48.3335V7.20076H45.1903V22.4621ZM113.999 14.8359V22.4621H110.856V20.352C109.62 21.8055 107.582 22.7336 105.275 22.7336C101.017 22.7336 97.9003 19.4151 97.9003 14.8271C97.9003 10.239 101.261 6.92057 105.945 6.92057C110.629 6.92057 113.999 10.239 113.999 14.8359ZM110.856 14.8359C110.856 11.8589 108.818 9.6874 105.98 9.6874C103.177 9.6874 101.139 11.8589 101.139 14.8359C101.139 17.8479 103.177 19.9843 105.98 19.9843C108.818 19.9843 110.856 17.8479 110.856 14.8359ZM79.2246 3.82977L80.5739 5.54591C84.6052 2.28002 90.7521 2.28876 94.7835 5.58096L96.1328 3.85606C91.3704 -0.00526404 84.0043 -0.0227641 79.2246 3.82977ZM95.741 14.9497C95.741 19.4501 92.563 22.7686 88.0968 22.7686C85.8764 22.7686 83.9956 21.8405 82.7943 20.3783V28.6875H79.6425V14.8533C79.6425 10.2653 83.0031 6.94683 87.6876 6.94683C92.3805 6.94683 95.741 10.2653 95.741 14.9497ZM92.5023 14.8533C92.5023 11.8501 90.4648 9.70492 87.6614 9.70492C84.8231 9.70492 82.7856 11.8501 82.7856 14.8533C82.7856 17.8303 84.8231 20.0017 87.6614 20.0017C90.4648 20.0017 92.5023 17.839 92.5023 14.8533ZM127.886 7.20076V15.4837C127.886 17.9355 126.371 19.5464 124.029 19.5464C121.748 19.5464 120.268 17.9355 120.268 15.4837V7.20076H117.125H114.965V9.8713H117.125V15.9128C117.125 19.599 119.649 22.0857 123.071 22.0857C125.196 22.0857 126.893 21.1575 127.877 19.5464V22.4008C127.877 24.8526 126.397 26.4022 124.116 26.4022C122.253 26.4022 120.956 25.2814 120.555 23.5129H117.595C118.169 26.7788 120.703 28.9502 124.238 28.9502C128.312 28.9502 131.055 26.2533 131.055 22.217V7.20076H127.886ZM77.1958 14.8621C77.1958 15.1686 77.1608 15.51 77.1002 15.8252H64.1447C64.5452 18.3645 66.5215 20.1331 69.1424 20.1331C70.997 20.1331 72.5729 19.0912 73.3562 17.6377H76.6911C75.5854 20.6409 72.5816 22.7336 69.1162 22.7336C64.432 22.7336 61.0017 19.4151 61.0017 14.8271C61.0017 10.239 64.4233 6.92057 69.1162 6.92057C73.8091 6.92933 77.1608 10.239 77.1958 14.8621ZM74.14 13.3736C73.6173 11.1059 71.6411 9.52983 69.1424 9.52983C66.6783 9.52983 64.7888 11.1146 64.2403 13.3736H74.14Z" fill="#505050"/>
<path d="M12.338 42.9502C11.4518 42.9502 10.6891 42.7579 10.0487 42.3721C9.40889 41.9868 8.9167 41.4562 8.57209 40.7797C8.22749 40.1032 8.05518 39.3307 8.05518 38.4619C8.05518 37.5772 8.2316 36.7972 8.58445 36.1207C8.9414 35.4411 9.43771 34.9099 10.0734 34.5285C10.7138 34.1432 11.46 33.9502 12.3133 33.9502C12.9785 33.9502 13.5771 34.0638 14.1104 34.2904C14.6438 34.517 15.0812 34.8343 15.4217 35.2424C15.762 35.6505 15.9736 36.1265 16.0552 36.671H14.6027C14.4922 36.2743 14.2457 35.9228 13.8647 35.6169C13.4872 35.3065 12.9785 35.1517 12.338 35.1517C11.7717 35.1517 11.2754 35.2881 10.8491 35.5596C10.4262 35.8282 10.096 36.2076 9.85783 36.6988C9.62444 37.1863 9.50705 37.7587 9.50705 38.4163C9.50705 39.0889 9.62237 39.6747 9.85164 40.173C10.0857 40.6718 10.4139 41.0589 10.8367 41.335C11.263 41.6111 11.7641 41.7488 12.338 41.7488C12.7155 41.7488 13.0582 41.6885 13.3657 41.5673C13.6739 41.4467 13.9341 41.2729 14.1474 41.0463C14.361 40.819 14.5128 40.5473 14.6027 40.2301H16.0552C15.9736 40.7434 15.7704 41.2068 15.4463 41.6187C15.1257 42.0268 14.7015 42.3517 14.1723 42.5934C13.6471 42.8315 13.0355 42.9502 12.338 42.9502Z" fill="#505050"/>
<path d="M17.0552 42.9502V34.0891H18.5396V35.4276H18.6434C18.8257 34.989 19.1561 34.633 19.6332 34.3604C20.1103 34.0871 20.6492 33.9502 21.2477 33.9502C21.3608 33.9502 21.5017 33.952 21.6709 33.956C21.8402 33.9599 21.9679 33.9657 22.0552 33.9734V35.3579C22.0028 35.3469 21.8837 35.3295 21.6972 35.3061C21.5148 35.2791 21.3216 35.2661 21.1177 35.2661C20.6317 35.2661 20.1976 35.3559 19.8156 35.5368C19.4379 35.7139 19.1387 35.9601 18.9173 36.2752C18.7 36.5873 18.5918 36.9426 18.5918 37.3425V42.9502H17.0552Z" fill="#505050"/>
<path d="M24.6369 45.9502C24.4041 45.9502 24.1965 45.9311 24.0144 45.8937C23.8327 45.8593 23.7062 45.8256 23.6369 45.7912L23.9857 44.6097C24.3191 44.693 24.6135 44.7229 24.869 44.7006C25.1252 44.6777 25.3515 44.5658 25.5494 44.3652C25.7511 44.168 25.9352 43.8479 26.1019 43.4046L26.3574 42.7231L23.0552 33.9502H24.5435L27.0085 40.9047H27.1018L29.5669 33.9502H31.0552L27.2647 43.9505C27.0941 44.4009 26.8827 44.7744 26.631 45.0696C26.3787 45.3686 26.0864 45.5907 25.753 45.7345C25.4236 45.8784 25.0513 45.9502 24.6369 45.9502Z" fill="#505050"/>
<path d="M32.0552 45.9502V34.063H33.4001V35.4364H33.5654C33.6681 35.2864 33.8095 35.0949 33.9904 34.8622C34.1754 34.626 34.4385 34.4154 34.7808 34.2321C35.1269 34.0441 35.5948 33.9502 36.1851 33.9502C36.9477 33.9502 37.6203 34.1324 38.2027 34.496C38.7843 34.8604 39.2391 35.376 39.5655 36.0441C39.892 36.7122 40.0552 37.5 40.0552 38.4082C40.0552 39.3234 39.892 40.1175 39.5655 40.7889C39.2391 41.4568 38.7864 41.9749 38.2087 42.3425C37.6302 42.7061 36.9635 42.8883 36.2089 42.8883C35.6264 42.8883 35.1606 42.7963 34.8104 42.6128C34.4603 42.425 34.1912 42.2132 34.0023 41.9762C33.8134 41.7361 33.6681 41.5376 33.5654 41.38H33.4476V45.9502H32.0552ZM33.4239 38.3856C33.4239 39.0386 33.5246 39.6145 33.7254 40.1138C33.9253 40.6084 34.2189 40.9975 34.6038 41.2785C34.9894 41.5565 35.4612 41.6952 36.02 41.6952C36.6016 41.6952 37.088 41.549 37.4768 41.2559C37.8704 40.9595 38.1652 40.5619 38.3619 40.0626C38.5627 39.5603 38.6626 39.0006 38.6626 38.3856C38.6626 37.7779 38.5647 37.2297 38.3678 36.7425C38.175 36.2507 37.8823 35.8619 37.4887 35.5771C37.0992 35.2884 36.6096 35.1434 36.02 35.1434C35.4533 35.1434 34.9775 35.2807 34.5919 35.5543C34.207 35.8247 33.9154 36.2035 33.7194 36.6913C33.5225 37.1754 33.4239 37.7401 33.4239 38.3856Z" fill="#505050"/>
<path d="M45.8852 34.054V35.1974H41.0552V34.054H45.8852ZM42.463 31.9502H43.8947V40.3201C43.8947 40.7017 43.9534 40.9872 44.0706 41.1779C44.1925 41.3643 44.346 41.4903 44.5323 41.555C44.7218 41.6159 44.922 41.6466 45.1326 41.6466C45.2903 41.6466 45.4195 41.6389 45.5211 41.6235C45.622 41.6043 45.7032 41.5896 45.7635 41.5782L46.0552 42.7901C45.9578 42.8247 45.8223 42.8586 45.6484 42.8931C45.4744 42.9308 45.2538 42.9502 44.9871 42.9502C44.5823 42.9502 44.1864 42.8682 43.7978 42.7042C43.4134 42.5403 43.094 42.2907 42.8387 41.9551C42.5882 41.6197 42.463 41.1966 42.463 40.6863V31.9502Z" fill="#505050"/>
<path d="M51.0549 42.9502C50.258 42.9502 49.5592 42.763 48.9573 42.3891C48.3598 42.0153 47.8924 41.4918 47.5552 40.819C47.222 40.1469 47.0552 39.3606 47.0552 38.4619C47.0552 37.555 47.222 36.7636 47.5552 36.0871C47.8924 35.4106 48.3598 34.8858 48.9573 34.5113C49.5592 34.1374 50.258 33.9502 51.0549 33.9502C51.8524 33.9502 52.5492 34.1374 53.1474 34.5113C53.7486 34.8858 54.216 35.4106 54.5494 36.0871C54.8866 36.7636 55.0552 37.555 55.0552 38.4619C55.0552 39.3606 54.8866 40.1469 54.5494 40.819C54.216 41.4918 53.7486 42.0153 53.1474 42.3891C52.5492 42.763 51.8524 42.9502 51.0549 42.9502ZM51.0549 41.7488C51.6606 41.7488 52.1588 41.5959 52.5492 41.2899C52.9402 40.9833 53.2294 40.581 53.4172 40.0828C53.605 39.5841 53.6986 39.0433 53.6986 38.4619C53.6986 37.88 53.605 37.3373 53.4172 36.8354C53.2294 36.3327 52.9402 35.9266 52.5492 35.6169C52.1588 35.3065 51.6606 35.1517 51.0549 35.1517C50.4497 35.1517 49.9516 35.3065 49.5612 35.6169C49.1702 35.9266 48.881 36.3327 48.6932 36.8354C48.5054 37.3373 48.4118 37.88 48.4118 38.4619C48.4118 39.0433 48.5054 39.5841 48.6932 40.0828C48.881 40.581 49.1702 40.9833 49.5612 41.2899C49.9516 41.5959 50.4497 41.7488 51.0549 41.7488Z" fill="#505050"/>
<path d="M62.0552 45.9502V34.063H63.2322V35.4364H63.3768C63.4661 35.2864 63.5899 35.0949 63.7482 34.8622C63.91 34.626 64.1409 34.4154 64.4404 34.2321C64.7433 34.0441 65.1527 33.9502 65.6686 33.9502C66.3366 33.9502 66.9251 34.1324 67.4342 34.496C67.9437 34.8604 68.3411 35.376 68.6267 36.0441C68.9124 36.7122 69.0552 37.5 69.0552 38.4082C69.0552 39.3234 68.9124 40.1175 68.6267 40.7889C68.3411 41.4568 67.9455 41.9749 67.4393 42.3425C66.9337 42.7061 66.3504 42.8883 65.6893 42.8883C65.1804 42.8883 64.772 42.7963 64.4657 42.6128C64.16 42.425 63.9239 42.2132 63.7586 41.9762C63.5933 41.7361 63.4661 41.5376 63.3768 41.38H63.2737V45.9502H62.0552ZM63.2529 38.3856C63.2529 39.0386 63.3405 39.6145 63.5161 40.1138C63.6918 40.6084 63.948 40.9975 64.2855 41.2785C64.6223 41.5565 65.0358 41.6952 65.524 41.6952C66.0337 41.6952 66.4587 41.549 66.7995 41.2559C67.1434 40.9595 67.4013 40.5619 67.5734 40.0626C67.7491 39.5603 67.8366 39.0006 67.8366 38.3856C67.8366 37.7779 67.7509 37.2297 67.5786 36.7425C67.4099 36.2507 67.1538 35.8619 66.8094 35.5771C66.469 35.2884 66.0405 35.1434 65.524 35.1434C65.0289 35.1434 64.6119 35.2807 64.2751 35.5543C63.9377 35.8247 63.6831 36.2035 63.5109 36.6913C63.3388 37.1754 63.2529 37.7401 63.2529 38.3856Z" fill="#505050"/>
<path d="M74.0424 42.9502C73.4873 42.9502 72.9837 42.8463 72.5316 42.6395C72.0796 42.428 71.7203 42.1248 71.4545 41.7292C71.1881 41.3296 71.0552 40.8473 71.0552 40.2819C71.0552 39.7844 71.1544 39.3811 71.3515 39.0722C71.5493 38.7595 71.8131 38.5145 72.1438 38.3372C72.4745 38.1601 72.8393 38.0282 73.2386 37.9416C73.6411 37.8511 74.0462 37.7795 74.4524 37.727C74.9847 37.6586 75.4157 37.6079 75.7464 37.5737C76.0808 37.5365 76.3244 37.4745 76.4764 37.3876C76.6321 37.3009 76.7096 37.1503 76.7096 36.9351V36.8901C76.7096 36.3324 76.5559 35.8987 76.2481 35.5899C75.9442 35.281 75.4826 35.1264 74.8633 35.1264C74.221 35.1264 73.7175 35.2658 73.3525 35.5443C72.9875 35.8235 72.7312 36.121 72.583 36.4374L71.3063 35.9855C71.534 35.4581 71.8379 35.0473 72.2182 34.7529C72.6023 34.4554 73.02 34.2483 73.4721 34.1312C73.9279 34.0104 74.3769 33.9502 74.8174 33.9502C75.0985 33.9502 75.4214 33.9844 75.7865 34.0522C76.1552 34.1162 76.5101 34.2503 76.8521 34.4536C77.198 34.6567 77.4855 34.9644 77.713 35.3752C77.9413 35.786 78.0552 36.3362 78.0552 37.0255V42.7464H76.7096V41.5708H76.6416C76.5501 41.7594 76.3982 41.9607 76.1858 42.1753C75.9727 42.3905 75.6899 42.5735 75.3364 42.7242C74.9828 42.875 74.5516 42.9502 74.0424 42.9502ZM74.2471 41.7519C74.7793 41.7519 75.2276 41.648 75.5926 41.441C75.9614 41.2334 76.2385 40.9655 76.4248 40.6376C76.615 40.3104 76.7096 39.9655 76.7096 39.6034V38.3822C76.6531 38.4505 76.5273 38.5127 76.334 38.5689C76.1437 38.6214 75.9231 38.669 75.6726 38.7101C75.4254 38.748 75.1844 38.7817 74.9485 38.812C74.7171 38.8386 74.5288 38.8607 74.3844 38.8798C74.0347 38.9253 73.708 38.9987 73.4041 39.1006C73.1033 39.1981 72.8603 39.3469 72.674 39.5469C72.4915 39.7432 72.4007 40.0104 72.4007 40.3496C72.4007 40.8131 72.5735 41.1638 72.9195 41.4012C73.2685 41.6348 73.7117 41.7519 74.2471 41.7519Z" fill="#505050"/>
<path d="M80.6364 45.9502C80.4042 45.9502 80.1967 45.9311 80.0144 45.8937C79.8321 45.8593 79.7063 45.8256 79.6363 45.7912L79.9853 44.6097C80.3186 44.693 80.613 44.7229 80.8691 44.7006C81.1247 44.6777 81.3517 44.5658 81.5496 44.3652C81.7507 44.168 81.9348 43.8479 82.1015 43.4046L82.3577 42.7231L79.0552 33.9502H80.5436L83.0088 40.9047H83.1015L85.5668 33.9502H87.0552L83.2644 43.9505C83.0938 44.4009 82.883 44.7744 82.6307 45.0696C82.379 45.3686 82.0859 45.5907 81.7525 45.7345C81.4231 45.8784 81.0514 45.9502 80.6364 45.9502Z" fill="#505050"/>
<path d="M89.0552 42.9502V34.0662H90.2993V35.4542H90.4083C90.583 34.9801 90.8647 34.6115 91.2542 34.3493C91.6431 34.0837 92.1106 33.9502 92.6565 33.9502C93.2092 33.9502 93.6693 34.0837 94.037 34.3493C94.4082 34.6115 94.6974 34.9801 94.9043 35.4542H94.9919C95.2062 34.9957 95.5281 34.6309 95.9579 34.3608C96.387 34.0876 96.9018 33.9502 97.502 33.9502C98.2513 33.9502 98.864 34.199 99.3406 34.6963C99.8173 35.19 100.055 35.9594 100.055 37.0042V42.9502H98.768V37.0042C98.768 36.3488 98.5988 35.8804 98.2604 35.5986C97.922 35.3175 97.5239 35.1764 97.065 35.1764C96.4758 35.1764 96.0193 35.3655 95.6956 35.7437C95.3717 36.1175 95.2099 36.5916 95.2099 37.1661V42.9502H93.9006V36.8655C93.9006 36.3603 93.7461 35.9535 93.4368 35.6453C93.1276 35.3331 92.729 35.1764 92.2414 35.1764C91.9073 35.1764 91.5945 35.271 91.3036 35.4601C91.0157 35.6492 90.7831 35.9115 90.6048 36.2464C90.4301 36.578 90.3432 36.9621 90.3432 37.398V42.9502H89.0552Z" fill="#505050"/>
<path d="M105.762 42.9502C104.996 42.9502 104.335 42.7649 103.779 42.3949C103.227 42.021 102.801 41.4993 102.5 40.8305C102.204 40.1584 102.055 39.3758 102.055 38.4842C102.055 37.5924 102.204 36.8067 102.5 36.1265C102.801 35.4429 103.218 34.9099 103.754 34.5285C104.292 34.1432 104.92 33.9502 105.638 33.9502C106.052 33.9502 106.461 34.0258 106.865 34.1768C107.269 34.3285 107.636 34.5741 107.968 34.9136C108.299 35.2501 108.563 35.6962 108.76 36.2516C108.956 36.8067 109.055 37.4909 109.055 38.3034V38.87H102.925V37.7138H107.812C107.812 37.2225 107.723 36.7839 107.543 36.3988C107.367 36.0135 107.115 35.7095 106.787 35.486C106.463 35.2634 106.08 35.1517 105.638 35.1517C105.151 35.1517 104.73 35.2843 104.374 35.5483C104.023 35.8092 103.752 36.1492 103.562 36.5688C103.372 36.9882 103.277 37.4377 103.277 37.9174V38.6885C103.277 39.346 103.381 39.9033 103.588 40.3601C103.798 40.8139 104.09 41.1592 104.463 41.3972C104.835 41.6315 105.268 41.7488 105.762 41.7488C106.083 41.7488 106.373 41.7 106.632 41.6016C106.894 41.4993 107.121 41.3483 107.31 41.1478C107.5 40.9441 107.647 40.6908 107.75 40.3888L108.93 40.7511C108.806 41.1896 108.598 41.5749 108.304 41.9074C108.011 42.2361 107.648 42.4932 107.217 42.6785C106.786 42.8594 106.3 42.9502 105.762 42.9502Z" fill="#505050"/>
<path d="M112.414 37.606V42.9502H111.055V34.0662H112.368V35.4542H112.483C112.69 35.0027 113.005 34.6408 113.427 34.3667C113.849 34.0896 114.394 33.9502 115.062 33.9502C115.661 33.9502 116.185 34.074 116.633 34.3207C117.082 34.5636 117.432 34.9335 117.681 35.431C117.931 35.9244 118.055 36.5494 118.055 37.3055V42.9502H116.697V37.398C116.697 36.6997 116.517 36.1564 116.156 35.7665C115.795 35.3732 115.3 35.1764 114.67 35.1764C114.237 35.1764 113.849 35.271 113.508 35.4601C113.17 35.6492 112.903 35.9244 112.707 36.2872C112.512 36.6498 112.414 37.0891 112.414 37.606Z" fill="#505050"/>
<path d="M124.885 34.054V35.1974H120.055V34.054H124.885ZM121.463 31.9502H122.895V40.3201C122.895 40.7017 122.953 40.9872 123.071 41.1779C123.192 41.3643 123.346 41.4903 123.532 41.555C123.723 41.6159 123.923 41.6466 124.133 41.6466C124.29 41.6466 124.42 41.6389 124.521 41.6235C124.622 41.6043 124.703 41.5896 124.764 41.5782L125.055 42.7901C124.958 42.8247 124.822 42.8586 124.648 42.8931C124.474 42.9308 124.254 42.9502 123.987 42.9502C123.583 42.9502 123.186 42.8682 122.798 42.7042C122.413 42.5403 122.094 42.2907 121.839 41.9551C121.588 41.6197 121.463 41.1966 121.463 40.6863V31.9502Z" fill="#505050"/>
</g>
<defs>
<clipPath id="clip0_3781_24218">
<rect width="133" height="45" fill="white" transform="translate(0 0.950195)"/>
</clipPath>
</defs>
</svg>
